<?xml version="1.0" encoding="iso-8859-1"?>
<!-- Generator: Adobe Illustrator 19.0.0, SVG Export Plug-In . SVG Version: 6.00 Build 0)  -->
<svg version="1.1" id="Capa_1" xmlns="http://www.w3.org/2000/svg" xmlns:xlink="http://www.w3.org/1999/xlink" x="0px" y="0px"
	 viewBox="0 0 512 512" style="enable-background:new 0 0 512 512;" xml:space="preserve">
<g>
	<g>
		<g>
			<path d="M365.884,85.333H137.583l8.934,76.8h118.016c1.323,0,2.645,0,3.968,0.111c21.614,0.866,42.246,9.261,58.325,23.731
				c2.814-4.226,7.552-6.768,12.629-6.775h15.531L365.884,85.333z"/>
			<path d="M366.933,337.971V196.267h-25.6v140.646c5.633,1.014,11.343,1.542,17.067,1.579
				C361.318,338.492,364.109,338.193,366.933,337.971z"/>
			<path d="M238.933,264.533v-18.944c0.005-8.387,6.802-15.185,15.189-15.189H281.6v-18.944c0.005-8.387,6.802-15.185,15.189-15.189
				h15.846c-12.8-10.391-28.624-16.353-45.099-16.99c-1.22-0.077-2.108-0.077-3.004-0.077h-153.6
				c-42.394,0.052-76.748,34.406-76.8,76.8v8.533h202.982H238.933z M119.467,221.867h-8.533c-4.713,0-8.533-3.821-8.533-8.533
				s3.82-8.533,8.533-8.533h8.533c4.713,0,8.533,3.82,8.533,8.533S124.18,221.867,119.467,221.867z M170.667,238.933h-8.533
				c-4.713,0-8.533-3.82-8.533-8.533s3.82-8.533,8.533-8.533h8.533c4.713,0,8.533,3.82,8.533,8.533S175.38,238.933,170.667,238.933z
				 M221.867,221.867h-8.533c-4.713,0-8.533-3.821-8.533-8.533s3.821-8.533,8.533-8.533h8.533c4.713,0,8.533,3.82,8.533,8.533
				S226.58,221.867,221.867,221.867z"/>
			<path d="M298.667,238.933v75.546c7.09,7.76,15.841,13.819,25.6,17.724V213.333h-25.6V238.933z"/>
			<path d="M281.6,286.353v-38.886H256v18.679C266.929,269.114,276.175,276.412,281.6,286.353z"/>
			<path d="M384,51.2c0-4.713-3.82-8.533-8.533-8.533H128c-4.713,0-8.533,3.82-8.533,8.533v17.067H384V51.2z"/>
			<path d="M384,335.155c9.298-2.56,17.998-6.934,25.6-12.868v-6.468v-0.085v-102.4H384V335.155z"/>
			<path d="M358.4,17.067c0-4.713-3.82-8.533-8.533-8.533H153.6c-4.713,0-8.533,3.82-8.533,8.533V25.6H358.4V17.067z"/>
			<path d="M452.267,269.517v-30.583h-25.6v64.23c2.44-3.943,4.544-8.085,6.289-12.382
				C436.64,281.61,443.492,274.065,452.267,269.517z"/>
			<path d="M39.142,329.276c-3.54,3.478-5.353,8.349-4.949,13.295c1.172,9.235,9.152,16.079,18.458,15.829h71.817l-34.133-34.133
				H51.2C46.673,324.256,42.33,326.06,39.142,329.276z"/>
			<path d="M222.02,281.6H59.733v25.6h30.635c4.51,0.003,8.836,1.792,12.032,4.975l42.667,42.667l42.667-42.667
				c3.196-3.183,7.521-4.972,12.032-4.975h26.129l-3.849-25.114C222.02,281.924,222.046,281.762,222.02,281.6z"/>
			<path d="M204.8,406.042l34.133,34.133l6.349-6.349l-8.909-58.359H59.733v25.6h133.035
				C197.279,401.07,201.604,402.859,204.8,406.042z"/>
			<circle cx="354.133" cy="422.4" r="29.867"/>
			<polygon points="165.658,358.4 233.728,358.4 228.506,324.267 199.765,324.267 			"/>
			<path d="M503.467,486.4h-57.318l31.411-204.8h-5.265c-10.251-0.067-19.529,6.06-23.492,15.514
				c-14.831,37.137-47.787,58.445-90.453,58.445c-27.993,1.016-55.008-10.368-73.83-31.113c-0.379-0.355-0.722-0.746-1.024-1.169
				c-6.557-7.824-11.808-16.656-15.548-26.155c-3.962-9.46-13.245-15.592-23.501-15.522h-5.214l31.352,204.8h-17.254l-4.847-31.573
				l-3.516,3.516c-3.332,3.331-8.734,3.331-12.066,0l-40.192-40.209H51.2H34.133v25.6c0.028,23.552,19.114,42.638,42.667,42.667
				H8.533C3.82,486.4,0,490.221,0,494.933s3.82,8.533,8.533,8.533h494.933c4.713,0,8.533-3.82,8.533-8.533
				S508.18,486.4,503.467,486.4z M354.133,469.333c-25.921,0-46.933-21.013-46.933-46.933c0.028-25.909,21.024-46.905,46.933-46.933
				c25.921,0,46.933,21.013,46.933,46.933S380.054,469.333,354.133,469.333z"/>
		</g>
	</g>
</g>
<g>
</g>
<g>
</g>
<g>
</g>
<g>
</g>
<g>
</g>
<g>
</g>
<g>
</g>
<g>
</g>
<g>
</g>
<g>
</g>
<g>
</g>
<g>
</g>
<g>
</g>
<g>
</g>
<g>
</g>
</svg>
