<svg height="448pt" viewBox="0 -44 448.17877 448" width="448pt" xmlns="http://www.w3.org/2000/svg"><path d="m79.777344 183.679688c-1.910156 1.882812-3.953125 3.628906-6.109375 5.226562l7.886719 7.886719 11.328124-11.328125-7.886718-7.886719c-1.59375 2.152344-3.335938 4.195313-5.21875 6.101563zm0 0"/><path d="m40.179688 312.089844c10.609374.027344 20.789062-4.203125 28.253906-11.746094 11.984375-11.949219 15.105468-30.164062 7.785156-45.421875-3.902344-8.257813-10.539062-14.910156-18.785156-18.832031-14.835938-7.183594-32.558594-4.535156-44.640625 6.679687-12.082031 11.210938-16.050781 28.6875-9.996094 44.015625 6.058594 15.332032 20.898437 25.378906 37.382813 25.304688zm-22.625-62.640625c12.65625-12.097657 32.589843-12.097657 45.25 0 12.496093 12.496093 12.5 32.757812.003906 45.257812-12.5 12.496094-32.761719 12.496094-45.257813 0-12.496093-12.5-12.496093-32.761719.003907-45.257812zm0 0"/><path d="m205.210938 297.867188-78.398438-78.472657-11.3125 11.320313 39.78125 39.710937c13.640625 13.78125 30.984375 23.3125 49.929688 27.441407zm0 0"/><path d="m51.492188 283.402344c6.25-6.25 6.25-16.378906 0-22.628906-6.246094-6.25-16.378907-6.25-22.628907 0-6.246093 6.25-6.246093 16.378906.003907 22.628906 6.328124 6.046875 16.292968 6.046875 22.625 0zm0 0"/><path d="m336.179688 64.089844c0 4.417968-3.582032 8-8 8-4.417969 0-8-3.582032-8-8 0-4.417969 3.582031-8 8-8 4.417968 0 8 3.582031 8 8zm0 0"/><path d="m51.492188 155.402344c6.25-6.25 6.25-16.378906 0-22.628906-6.246094-6.25-16.378907-6.25-22.628907 0-6.246093 6.25-6.246093 16.378906.003907 22.628906 6.328124 6.046875 16.292968 6.046875 22.625 0zm0 0"/><path d="m448.179688.0898438h-408v88.0000002c18.207031-.03125 35.289062 8.808594 45.78125 23.6875 10.492187 14.882812 13.082031 33.941406 6.9375 51.078125l11.28125 11.304687 39.765624-39.734375c21.898438-22.097656 51.742188-34.488281 82.847657-34.402343h19.304687l-107.984375 108.066406 108 108.09375h-19.292969c-31.113281.09375-60.964843-12.300782-82.867187-34.398438l-39.773437-39.75-11.402344 11.398438c6.113281 17.105468 3.523437 36.117187-6.941406 50.96875-10.460938 14.847656-27.492188 23.683594-45.65625 23.6875v32h408zm-272 216.0000002h-16v-16h16zm32 0h-16v-16h16zm32 0h-16v-16h16zm88-176c13.253906 0 24 10.746094 24 24s-10.746094 24-24 24c-13.253907 0-24-10.746094-24-24s10.746093-24 24-24zm-56 176h-16v-16h16zm32 0h-16v-16h16zm32 0h-16v-16h16zm32 0h-16v-16h16zm32 0h-16v-16h16zm-16-72c-13.253907 0-24-10.746094-24-24s10.746093-24 24-24c13.253906 0 24 10.746094 24 24s-10.746094 24-24 24zm21.65625-90.34375-88 88c-3.140626 3.03125-8.128907 2.988281-11.214844-.097656-3.085938-3.085938-3.128906-8.074219-.097656-11.214844l88-88c3.136718-3.03125 8.128906-2.988282 11.214843.097656 3.085938 3.085938 3.128907 8.074219.097657 11.214844zm26.34375 162.34375h-16v-16h16zm0 0"/><path d="m392.179688 120.089844c0 4.417968-3.582032 8-8 8-4.417969 0-8-3.582032-8-8 0-4.417969 3.582031-8 8-8 4.417968 0 8 3.582031 8 8zm0 0"/><path d="m11.890625 172.371094c13.492187 13.496094 34.640625 15.578125 50.507813 4.980468 15.867187-10.601562 22.039062-30.9375 14.738281-48.566406-7.304688-17.632812-26.042969-27.652344-44.761719-23.929687-18.714844 3.722656-32.195312 20.152343-32.195312 39.234375-.027344 10.609375 4.191406 20.792968 11.710937 28.28125zm5.664063-50.90625c12.65625-12.097656 32.589843-12.097656 45.25 0 12.496093 12.496094 12.5 32.757812.003906 45.257812-12.5 12.5-32.761719 12.5-45.257813 0-12.496093-12.5-12.496093-32.761718.003907-45.257812zm0 0"/><path d="m155.289062 145.738281-81.597656 81.550781c4.289063 3.222657 8.105469 7.039063 11.328125 11.328126l120.191407-120.304688c-18.941407 4.125-36.28125 13.648438-49.921876 27.425781zm0 0"/></svg>