<svg height="428pt" viewBox="-26 0 427 428" width="428pt" xmlns="http://www.w3.org/2000/svg"><path d="m145.199219 126h34.300781v29h16v-29h34.300781c4.417969 0 8-3.582031 8-8s-3.582031-8-8-8h-84.601562c-4.417969 0-8 3.582031-8 8s3.582031 8 8 8zm0 0"/><path d="m32.660156 428h309.679688c17.6875.007812 32.0625-14.28125 32.160156-31.96875v-16.03125h-374v16.03125c.097656 17.6875 14.472656 31.976562 32.160156 31.96875zm0 0"/><path d="m39.5 343h297v21h-297zm0 0"/><path d="m312.25 212.957031c-49.90625-48.023437-122.964844-63.097656-187.800781-38.746093-64.835938 24.347656-109.910157 83.789062-115.863281 152.789062h358.289062c-3.84375-43.363281-23.246094-83.871094-54.625-114.042969zm0 0"/><path d="m186.5 56c4.417969 0 8-3.582031 8-8v-40c0-4.417969-3.582031-8-8-8s-8 3.582031-8 8v40c0 4.417969 3.582031 8 8 8zm0 0"/><path d="m315.007812 115.578125c1.726563.003906 3.410157-.558594 4.792969-1.597656l40-30c3.535157-2.652344 4.25-7.667969 1.597657-11.203125-2.648438-3.53125-7.664063-4.25-11.199219-1.597656l-40 30c-2.753907 2.066406-3.878907 5.664062-2.789063 8.933593 1.09375 3.265625 4.152344 5.46875 7.597656 5.464844zm0 0"/><path d="m15.199219 83.980469 40 30c3.535156 2.648437 8.550781 1.933593 11.199219-1.601563 2.652343-3.535156 1.9375-8.550781-1.597657-11.199218l-40-30c-3.535156-2.652344-8.550781-1.933594-11.199219 1.597656-2.652343 3.535156-1.9375 8.550781 1.597657 11.203125zm0 0"/></svg>