<?xml version="1.0" encoding="iso-8859-1"?>
<!-- Generator: Adobe Illustrator 19.0.0, SVG Export Plug-In . SVG Version: 6.00 Build 0)  -->
<svg version="1.1" id="Layer_1" xmlns="http://www.w3.org/2000/svg" xmlns:xlink="http://www.w3.org/1999/xlink" x="0px" y="0px"
	 viewBox="0 0 511.999 511.999" style="enable-background:new 0 0 511.999 511.999;" xml:space="preserve">
<g>
	<g>
		<path d="M497.037,118.625c-9.853-1.744-19.248,4.833-20.99,14.684l-21.688,122.69h-34.134V229.12
			c8.453-1.549,14.599-8.921,14.599-17.8c0-9.781-7.871-17.729-17.565-18.079c-2.105-7.671-9.222-13.317-17.562-13.317h-72.452
			c-8.328,0-15.325,5.628-17.442,13.283H200.989c-2.117-7.655-9.113-13.283-17.442-13.283h-72.452
			c-8.363,0-15.384,5.677-17.467,13.382c-9.118,0.943-16.453,8.647-16.453,18.014c0,8.879,6.146,16.251,14.599,17.8v26.878H57.642
			L35.954,133.307c-1.741-9.85-11.137-16.427-20.99-14.684c-9.85,1.741-16.425,11.138-14.684,20.989l25.082,141.885v94.045
			c0,10.003,8.11,18.113,18.113,18.113s18.113-8.11,18.113-18.113v-83.32h30.188v83.053c0,10.003,8.11,18.113,18.113,18.113
			s18.113-8.11,18.113-18.113v-3.356h255.996v3.356c0,10.003,8.11,18.113,18.113,18.113s18.113-8.11,18.113-18.113v-83.053h30.188
			v83.32c0,10.003,8.11,18.113,18.113,18.113s18.113-8.11,18.113-18.113v-94.045l25.082-141.885
			C513.462,129.763,506.887,120.366,497.037,118.625z M383.999,335.695H128.002V229.433h255.996V335.695z"/>
	</g>
</g>
<g>
</g>
<g>
</g>
<g>
</g>
<g>
</g>
<g>
</g>
<g>
</g>
<g>
</g>
<g>
</g>
<g>
</g>
<g>
</g>
<g>
</g>
<g>
</g>
<g>
</g>
<g>
</g>
<g>
</g>
</svg>
