<?xml version="1.0" encoding="iso-8859-1"?>
<!-- Generator: Adobe Illustrator 19.0.0, SVG Export Plug-In . SVG Version: 6.00 Build 0)  -->
<svg version="1.1" id="Capa_1" xmlns="http://www.w3.org/2000/svg" xmlns:xlink="http://www.w3.org/1999/xlink" x="0px" y="0px"
	 viewBox="0 0 512 512" style="enable-background:new 0 0 512 512;" xml:space="preserve">
<path style="fill:#DC691D;" d="M152.507,251.661c3.098-20.931,20.966-37.038,42.748-37.038c0-23.96-19.43-43.39-43.39-43.39
	s-43.39,19.43-43.39,43.39c0,0.798,0.191,1.545,0.234,2.334C127.705,221.93,143.525,234.678,152.507,251.661z"/>
<path style="fill:#EBBA16;" d="M91.119,208.271c-38.339,0-69.424,31.084-69.424,69.424h138.847
	C160.542,239.356,129.458,208.271,91.119,208.271z"/>
<path style="fill:#ED8A19;" d="M91.119,242.983c-19.17,0-34.712,15.542-34.712,34.712h69.424
	C125.831,258.525,110.288,242.983,91.119,242.983z"/>
<path style="fill:#23A24D;" d="M160.742,277.695h79.863c-1.432-5.554-2.274-11.351-2.274-17.356c0-12.401,3.289-24.021,8.99-34.096
	c-7.888-10.847-37.628-17.972-52.068-17.972c-21.79,0-39.658,16.115-42.748,37.038c5.077,9.598,7.984,20.523,8.027,32.126
	C160.594,277.53,160.673,277.608,160.742,277.695z"/>
<path style="fill:#EBBA16;" d="M358.791,255.453L358.791,255.453c8.834-17.703,24.975-31.058,44.501-36.17
	c0.043-0.79,0.234-1.536,0.234-2.334c0-23.96-19.43-43.39-43.39-43.39c-19.951,0-36.578,13.538-41.646,31.874
	C338.979,214.407,354.33,232.951,358.791,255.453z"/>
<path style="fill:#7383BF;" d="M420.881,208.271c-38.339,0-69.424,31.084-69.424,69.424h138.847
	C490.305,239.356,459.221,208.271,420.881,208.271z"/>
<path style="fill:#CB465F;" d="M290.712,190.915c-38.339,0-69.424,31.084-69.424,69.424c0,6.005,0.842,11.802,2.274,17.356h127.896
	c0-11.125,2.681-21.599,7.333-30.92C352.482,214.927,324.408,190.915,290.712,190.915z"/>
<path style="fill:#E7ECED;" d="M299.39,477.288h-86.78c-115.026,0-208.271-93.245-208.271-208.271l0,0h503.322l0,0
	C507.661,384.043,414.416,477.288,299.39,477.288z"/>
<g>
	<path style="fill:#AFB6BB;" d="M268.392,451.272c-2.829,0-5.649,0-8.461-0.009l-3.948-0.009c-4.79-0.009-8.669-3.896-8.661-8.695
		c0.009-4.79,3.888-8.661,8.678-8.661c0,0,0.009,0,0.017,0l3.948,0.009c38.86,0.095,79.065,0.174,113.768-16.505
		c4.322-2.074,9.502-0.243,11.576,4.061c2.074,4.322,0.26,9.511-4.061,11.585C345.609,450.169,306.549,451.272,268.392,451.272z"/>
	<path style="fill:#AFB6BB;" d="M429.559,390.508c-2.065,0-4.131-0.729-5.788-2.213c-3.575-3.194-3.879-8.678-0.677-12.253
		c11.481-12.835,17.92-26.216,24.576-41.134c1.953-4.374,7.09-6.344,11.464-4.391s6.344,7.081,4.391,11.455
		c-7.255,16.271-14.336,30.937-27.492,45.646C434.315,389.537,431.937,390.508,429.559,390.508z"/>
	<path style="fill:#AFB6BB;" d="M334.102,512H177.898c-9.589,0-17.356-7.767-17.356-17.356l0,0c0-9.589,7.767-17.356,17.356-17.356
		h156.203c9.589,0,17.356,7.767,17.356,17.356l0,0C351.458,504.233,343.691,512,334.102,512z"/>
</g>
<path style="fill:#556080;" d="M420.881,242.983c-19.17,0-34.712,15.542-34.712,34.712h69.424
	C455.593,258.525,440.051,242.983,420.881,242.983z"/>
<path style="fill:#FFFFFF;" d="M320.607,277.695c2.985-5.12,4.816-11.004,4.816-17.356c0-19.17-15.542-34.712-34.712-34.712
	s-34.712,15.542-34.712,34.712c0,6.352,1.831,12.236,4.816,17.356H320.607z"/>
<path style="fill:#33636C;" d="M195.254,286.373c-4.79,0-8.678-3.879-8.678-8.678v-26.034c0-4.799,3.888-8.678,8.678-8.678
	s8.678,3.879,8.678,8.678v26.034C203.932,282.494,200.044,286.373,195.254,286.373z"/>
<g>
	<path style="fill:#AFB6BB;" d="M247.322,86.78c-4.79,0-8.678-3.879-8.678-8.678V8.678c0-4.799,3.888-8.678,8.678-8.678
		S256,3.879,256,8.678v69.424C256,82.901,252.112,86.78,247.322,86.78z"/>
	<path style="fill:#AFB6BB;" d="M247.322,147.525c-4.79,0-8.678-3.879-8.678-8.678v-26.034c0-4.799,3.888-8.678,8.678-8.678
		s8.678,3.879,8.678,8.678v26.034C256,143.646,252.112,147.525,247.322,147.525z"/>
	<path style="fill:#AFB6BB;" d="M308.068,52.068c-4.79,0-8.678-3.879-8.678-8.678V26.034c0-4.799,3.888-8.678,8.678-8.678
		s8.678,3.879,8.678,8.678V43.39C316.746,48.189,312.858,52.068,308.068,52.068z"/>
	<path style="fill:#AFB6BB;" d="M308.068,121.492c-4.79,0-8.678-3.879-8.678-8.678V78.102c0-4.799,3.888-8.678,8.678-8.678
		s8.678,3.879,8.678,8.678v34.712C316.746,117.612,312.858,121.492,308.068,121.492z"/>
	<path style="fill:#AFB6BB;" d="M186.576,52.068c-4.79,0-8.678-3.879-8.678-8.678V26.034c0-4.799,3.888-8.678,8.678-8.678
		s8.678,3.879,8.678,8.678V43.39C195.254,48.189,191.367,52.068,186.576,52.068z"/>
	<path style="fill:#AFB6BB;" d="M186.576,121.492c-4.79,0-8.678-3.879-8.678-8.678V78.102c0-4.799,3.888-8.678,8.678-8.678
		s8.678,3.879,8.678,8.678v34.712C195.254,117.612,191.367,121.492,186.576,121.492z"/>
</g>
<path style="fill:#DD352E;" d="M504.728,303.729c1.892-11.29,2.933-22.875,2.933-34.712H4.339c0,11.837,1.041,23.422,2.933,34.712
	H504.728z"/>
<g>
</g>
<g>
</g>
<g>
</g>
<g>
</g>
<g>
</g>
<g>
</g>
<g>
</g>
<g>
</g>
<g>
</g>
<g>
</g>
<g>
</g>
<g>
</g>
<g>
</g>
<g>
</g>
<g>
</g>
</svg>
