<?xml version="1.0" encoding="iso-8859-1"?>
<!-- Generator: Adobe Illustrator 19.0.0, SVG Export Plug-In . SVG Version: 6.00 Build 0)  -->
<svg version="1.1" id="Layer_1" xmlns="http://www.w3.org/2000/svg" xmlns:xlink="http://www.w3.org/1999/xlink" x="0px" y="0px"
	 viewBox="0 0 511.989 511.989" style="enable-background:new 0 0 511.989 511.989;" xml:space="preserve">
<rect x="319.995" y="117.334" style="fill:#FFCE54;" width="149.34" height="85.33"/>
<g>
	<path style="fill:#F6BB42;" d="M319.993,160v21.336c2.75,0,5.469-1.047,7.562-3.125c4.156-4.172,4.156-10.922,0-15.086
		C325.462,161.039,322.743,160,319.993,160z"/>
	<path style="fill:#F6BB42;" d="M461.803,163.125c-4.172,4.164-4.172,10.914,0,15.086c2.062,2.078,4.812,3.125,7.53,3.125V160
		C466.614,160,463.865,161.039,461.803,163.125z"/>
</g>
<g>
	<path style="fill:#434A54;" d="M351.993,117.337c0,2.727,1.062,5.453,3.125,7.539c4.188,4.164,10.937,4.164,15.093,0
		c2.094-2.086,3.125-4.812,3.125-7.539H351.993z"/>
	<path style="fill:#434A54;" d="M384.007,117.337c0,2.727,1.047,5.453,3.109,7.539c4.188,4.164,10.938,4.164,15.094,0
		c2.094-2.086,3.125-4.812,3.125-7.539H384.007z"/>
	<path style="fill:#434A54;" d="M434.21,124.876c2.094-2.086,3.125-4.812,3.125-7.539h-21.328c0,2.727,1.047,5.453,3.125,7.539
		C423.304,129.04,430.054,129.04,434.21,124.876z"/>
</g>
<rect x="42.687" y="117.334" style="fill:#FFCE54;" width="149.31" height="85.33"/>
<g>
	<path style="fill:#F6BB42;" d="M42.687,160v21.336c2.719,0,5.453-1.047,7.531-3.125c4.172-4.172,4.172-10.922,0-15.086
		C48.141,161.039,45.406,160,42.687,160z"/>
	<path style="fill:#F6BB42;" d="M184.465,163.125c-4.155,4.164-4.155,10.914,0,15.086c2.094,2.078,4.812,3.125,7.531,3.125V160
		C189.277,160,186.558,161.039,184.465,163.125z"/>
</g>
<g>
	<path style="fill:#434A54;" d="M74.686,117.337c0,2.727,1.031,5.453,3.125,7.539c4.156,4.164,10.906,4.164,15.078,0
		c2.078-2.086,3.109-4.812,3.109-7.539H74.686z"/>
	<path style="fill:#434A54;" d="M106.685,117.337c0,2.727,1.031,5.453,3.125,7.539c4.156,4.164,10.906,4.164,15.078,0
		c2.078-2.086,3.109-4.812,3.109-7.539H106.685z"/>
	<path style="fill:#434A54;" d="M156.888,124.876c2.078-2.086,3.125-4.812,3.125-7.539h-21.328c0,2.727,1.031,5.453,3.124,7.539
		C145.966,129.04,152.716,129.04,156.888,124.876z"/>
</g>
<path style="fill:#CCD1D9;" d="M202.683,181.336H32c0,0-10.656,42.663-10.656,138.66C21.344,415.994,32,458.65,32,458.65h170.684
	c0,0,10.656-42.655,10.656-138.653C213.34,223.999,202.683,181.336,202.683,181.336z"/>
<path style="fill:#656D78;" d="M21.344,319.996C21.344,415.994,32,458.65,32,458.65h170.684c0,0,10.656-42.655,10.656-138.653
	H21.344z"/>
<path style="fill:#CCD1D9;" d="M479.989,181.336H309.337c0,0-10.655,42.663-10.655,138.66c0,95.998,10.655,138.653,10.655,138.653
	h170.652c0,0,10.688-42.655,10.688-138.653C490.677,223.999,479.989,181.336,479.989,181.336z"/>
<path style="fill:#E6E9ED;" d="M298.682,319.996c0,95.998,10.655,138.653,10.655,138.653h170.652c0,0,10.688-42.655,10.688-138.653
	H298.682z"/>
<path style="fill:#ED5564;" d="M234.683,447.993h42.656V74.666c0-11.757-9.562-21.327-21.344-21.327
	c-11.75,0-21.312,9.57-21.312,21.327V447.993z"/>
<g>
	<path style="fill:#434A54;" d="M152.466,444.868c4.156,4.156,10.922,4.156,15.094,0c4.156-4.156,4.156-10.922,0-15.094
		c-4.172-4.156-10.938-4.156-15.094,0C148.309,433.946,148.309,440.712,152.466,444.868z"/>
	<path style="fill:#434A54;" d="M109.81,444.868c4.156,4.156,10.906,4.156,15.078,0c4.172-4.156,4.172-10.922,0-15.094
		c-4.172-4.156-10.922-4.156-15.078,0C105.639,433.946,105.639,440.712,109.81,444.868z"/>
	<path style="fill:#434A54;" d="M67.124,444.868c4.188,4.156,10.938,4.156,15.094,0s4.156-10.922,0-15.094
		c-4.156-4.156-10.906-4.156-15.094,0C62.968,433.946,62.968,440.712,67.124,444.868z"/>
</g>
<g>
	<path style="fill:#AAB2BC;" d="M92.89,248.459c-4.172-4.172-10.922-4.172-15.078,0c-2.219,2.219-3.25,5.172-3.109,8.07
		l-0.048,127.466l0,0c0,2.719,1.031,5.453,3.125,7.531c4.156,4.172,10.906,4.188,15.078,0.016c2.078-2.078,3.141-4.812,3.141-7.547
		l0,0l0.031-127.989h-0.031C95.999,253.271,94.968,250.537,92.89,248.459z"/>
	<path style="fill:#AAB2BC;" d="M160.013,255.998c0-2.727-1.047-5.461-3.125-7.539c-4.172-4.172-10.922-4.172-15.078,0
		c-2.093,2.078-3.124,4.812-3.124,7.539l0,0v127.997l0,0c0,2.719,1.031,5.469,3.124,7.531c4.156,4.172,10.906,4.172,15.078,0
		c2.078-2.062,3.125-4.812,3.125-7.531l0,0V255.998z"/>
</g>
<g>
	<path style="fill:#434A54;" d="M74.686,319.996l-0.031,63.999l0,0c0,2.719,1.031,5.453,3.125,7.531
		c4.156,4.172,10.906,4.188,15.078,0.016c2.078-2.078,3.141-4.812,3.141-7.547l0,0l0.016-63.999H74.686z"/>
	<path style="fill:#434A54;" d="M138.685,319.996v63.999l0,0c0,2.719,1.031,5.469,3.124,7.531c4.156,4.172,10.906,4.172,15.078,0
		c2.078-2.062,3.125-4.812,3.125-7.531v-63.999H138.685z"/>
</g>
<g>
	<path style="fill:#CCD1D9;" d="M429.804,444.868c4.156,4.156,10.906,4.156,15.077,0c4.172-4.156,4.172-10.922,0-15.094
		c-4.171-4.156-10.921-4.156-15.077,0C425.632,433.946,425.632,440.712,429.804,444.868z"/>
	<path style="fill:#CCD1D9;" d="M387.116,444.868c4.188,4.156,10.938,4.156,15.094,0s4.156-10.922,0-15.094
		c-4.156-4.156-10.906-4.156-15.094,0C382.961,433.946,382.961,440.712,387.116,444.868z"/>
	<path style="fill:#CCD1D9;" d="M344.462,444.868c4.156,4.156,10.922,4.156,15.094,0c4.155-4.156,4.155-10.922,0-15.094
		c-4.172-4.156-10.938-4.156-15.094,0C340.306,433.946,340.306,440.712,344.462,444.868z"/>
</g>
<g>
	<path style="fill:#AAB2BC;" d="M370.211,248.459c-4.156-4.172-10.905-4.172-15.093,0c-2.219,2.219-3.234,5.172-3.094,8.07
		l-0.031,127.45c-0.016,2.734,1.031,5.469,3.109,7.547c4.172,4.172,10.921,4.188,15.077,0.016c2.094-2.078,3.125-4.812,3.125-7.547
		l0,0l0.062-127.989h-0.031C373.336,253.271,372.305,250.537,370.211,248.459z"/>
	<path style="fill:#AAB2BC;" d="M437.335,255.998c0-2.727-1.031-5.461-3.125-7.539c-4.156-4.172-10.906-4.172-15.078,0
		c-2.078,2.078-3.125,4.812-3.125,7.539l0,0v127.997l0,0c0,2.719,1.047,5.469,3.125,7.531c4.172,4.172,10.922,4.172,15.078,0
		c2.094-2.062,3.125-4.812,3.125-7.531l0,0V255.998z"/>
</g>
<g>
	<path style="fill:#CCD1D9;" d="M352.009,319.996l-0.016,63.983c-0.016,2.734,1.031,5.469,3.109,7.547
		c4.172,4.172,10.921,4.188,15.077,0.016c2.094-2.078,3.125-4.812,3.125-7.547l0,0l0.031-63.999H352.009z"/>
	<path style="fill:#CCD1D9;" d="M416.007,319.996v63.999l0,0c0,2.719,1.047,5.469,3.125,7.531c4.172,4.172,10.922,4.172,15.078,0
		c2.094-2.062,3.125-4.812,3.125-7.531v-63.999H416.007z"/>
</g>
<path style="fill:#434A54;" d="M501.333,458.649H10.688C4.782,458.649,0,453.883,0,447.993s4.781-10.656,10.688-10.656h490.645
	c5.891,0,10.656,4.766,10.656,10.656S507.224,458.649,501.333,458.649z"/>
<g>
</g>
<g>
</g>
<g>
</g>
<g>
</g>
<g>
</g>
<g>
</g>
<g>
</g>
<g>
</g>
<g>
</g>
<g>
</g>
<g>
</g>
<g>
</g>
<g>
</g>
<g>
</g>
<g>
</g>
</svg>
