<svg viewBox="-79 0 512 512" xmlns="http://www.w3.org/2000/svg"><path d="m318.699219 212h-283.5625l-35.136719 144.0625 7.917969 5.9375c14.246093 10.6875 31.191406 16.332031 49 16.332031 14.191406 0 27.835937-3.585937 40-10.449219 12.167969 6.863282 25.808593 10.449219 40 10.449219 14.191406 0 27.835937-3.585937 40-10.449219 12.167969 6.863282 25.808593 10.449219 40 10.449219 14.191406 0 27.835937-3.585937 40-10.449219 12.167969 6.863282 25.808593 10.449219 40 10.449219 17.808593 0 34.753906-5.644531 49-16.332031l7.917969-5.9375zm0 0"/><path d="m191.917969 437v-31.496094c-5.101563-1.171875-10.117188-2.691406-15-4.5625-4.882813 1.871094-9.898438 3.390625-15 4.5625v31.496094c0 24.8125-20.1875 45-45 45v30c24.507812 0 46.304687-11.8125 60-30.046875 13.695312 18.234375 35.492187 30.046875 60 30.046875v-30c-24.8125 0-45-20.1875-45-45zm0 0"/><path d="m161.917969 182h30v-32h101v-150h-232v150h101zm-41-92v-30h112v30zm0 0"/></svg>