<?xml version="1.0" encoding="iso-8859-1"?>
<!-- Generator: Adobe Illustrator 18.0.0, SVG Export Plug-In . SVG Version: 6.00 Build 0)  -->
<!DOCTYPE svg PUBLIC "-//W3C//DTD SVG 1.1//EN" "http://www.w3.org/Graphics/SVG/1.1/DTD/svg11.dtd">
<svg version="1.1" id="Capa_1" xmlns="http://www.w3.org/2000/svg" xmlns:xlink="http://www.w3.org/1999/xlink" x="0px" y="0px"
	 viewBox="0 0 304.134 304.134" style="enable-background:new 0 0 304.134 304.134;" xml:space="preserve">
<g>
	<g>
		<g>
			<g>
				<path d="M203.476,67.65c-1.98,0-3.91-0.8-5.301-2.189c-1.399-1.4-2.199-3.33-2.199-5.311c0-1.97,0.8-3.899,2.199-5.3
					c1.391-1.399,3.32-2.189,5.301-2.189c1.97,0,3.91,0.79,5.3,2.189c1.399,1.4,2.2,3.33,2.2,5.3c0,1.98-0.801,3.91-2.2,5.311
					C207.376,66.85,205.446,67.65,203.476,67.65z"/>
			</g>
			<g>
				<path d="M233.126,105.41c-1.98,0-3.91-0.8-5.311-2.2c-1.391-1.39-2.189-3.32-2.189-5.3c0-1.971,0.799-3.9,2.199-5.3
					c1.391-1.4,3.32-2.2,5.301-2.2c1.969,0,3.909,0.8,5.299,2.2c1.4,1.39,2.201,3.329,2.201,5.3c0,1.979-0.801,3.91-2.201,5.3
					C237.035,104.61,235.095,105.41,233.126,105.41z"/>
			</g>
			<g>
				<path d="M191.687,112.91c-1.98,0-3.91-0.801-5.311-2.19c-1.391-1.4-2.189-3.33-2.189-5.3c0-1.98,0.799-3.92,2.189-5.311
					c1.4-1.399,3.33-2.199,5.311-2.199c1.969,0,3.909,0.8,5.299,2.199c1.4,1.391,2.201,3.33,2.201,5.311
					c0,1.97-0.801,3.899-2.201,5.3C195.596,112.11,193.656,112.91,191.687,112.91z"/>
			</g>
		</g>
		<path d="M296.632,99.966L198.861,2.195c-1.772-1.771-4.313-2.54-6.771-2.051c-2.459,0.49-4.51,2.177-5.465,4.494l-41.871,101.509
			c-10.092-3.702-21.184-5.709-32.68-5.709c-41.205,0-75.232,25.801-79.622,58.848h-5.565c-11.9,0-21.582,9.682-21.582,21.582
			c0,9.445,6.107,17.473,14.573,20.391c18.917,71.076,53.151,99.945,54.628,101.163c1.344,1.106,3.029,1.712,4.77,1.712H199.66
			c1.74,0,3.426-0.605,4.77-1.712c1.477-1.218,35.711-30.087,54.63-101.163c8.466-2.919,14.573-10.946,14.573-20.391
			c0-11.9-9.682-21.582-21.582-21.582h-6.715c-4.932-7.778-11.398-14.268-18.889-19.137l67.743-27.946
			c2.317-0.956,4.003-3.007,4.495-5.465C299.175,104.279,298.406,101.738,296.632,99.966z M112.074,115.439
			c24.831,0,47.176,10.885,58.316,28.407c1.799,2.827,5.254,4.12,8.465,3.165c4.395-1.305,8.943-1.967,13.518-1.967
			c12.924,0,25.059,5.255,33.914,14.242H47.626C52.126,134.534,79.306,115.439,112.074,115.439z M196.732,289.134H82.202
			c-6.87-6.701-31.178-33.273-46.439-86.684h207.41C227.91,255.86,203.603,282.433,196.732,289.134z M252.05,174.286
			c3.629,0,6.582,2.953,6.582,6.582c0,3.629-2.953,6.582-6.582,6.582H26.886c-3.63,0-6.582-2.953-6.582-6.582
			c0-3.629,2.952-6.582,6.582-6.582H252.05z M207.253,131.839c-4.809-1.178-9.799-1.795-14.881-1.795
			c-4.189,0-8.361,0.422-12.459,1.256c-5.697-7.482-13.059-13.822-21.564-18.777l37.856-91.771l81.872,81.871L207.253,131.839z"/>
	</g>
</g>
<g>
</g>
<g>
</g>
<g>
</g>
<g>
</g>
<g>
</g>
<g>
</g>
<g>
</g>
<g>
</g>
<g>
</g>
<g>
</g>
<g>
</g>
<g>
</g>
<g>
</g>
<g>
</g>
<g>
</g>
</svg>
