<?xml version="1.0" encoding="iso-8859-1"?>
<!-- Generator: Adobe Illustrator 19.0.0, SVG Export Plug-In . SVG Version: 6.00 Build 0)  -->
<svg version="1.1" id="Capa_1" xmlns="http://www.w3.org/2000/svg" xmlns:xlink="http://www.w3.org/1999/xlink" x="0px" y="0px"
	 viewBox="0 0 511.998 511.998" style="enable-background:new 0 0 511.998 511.998;" xml:space="preserve">
<path style="fill:#A3603E;" d="M433.898,108.476H104.141c0-14.379-11.654-26.033-26.033-26.033H17.363L0.007,65.087v9.624
	c0,18.649,15.117,33.765,33.765,33.765l0,0h26.979L4.78,188.442c-5.91,8.461-6.378,19.586-1.189,28.507
	c4.998,8.253,14.015,13.208,23.664,13.017h58.506c6.014,0.009,11.602,3.133,14.752,8.261l55.694,78.517v130.167h34.711
	l26.033-121.489H425.22l26.033,26.033l-17.356,95.456h34.711l34.711-104.134l-13.19-32.976c-2.707-6.777-3.211-14.232-1.441-21.313
	l14.631-58.523v-52.067l0,0C503.32,139.56,472.236,108.476,433.898,108.476z"/>
<path style="fill:#8F5436;" d="M148.901,306.435l7.307,10.309v130.167h34.711l26.033-121.489H425.22l26.033,26.033l-17.356,95.456
	h34.711l34.711-104.134l-13.19-32.976c-2.707-6.777-3.211-14.232-1.441-21.313l14.631-58.523v-52.067l0,0
	c0.017-18.18-7.133-35.64-19.89-48.596C387.602,236.995,230.785,287.048,148.901,306.435z"/>
<g>
	<rect x="60.743" y="143.187" style="fill:#75462E;" width="17.356" height="17.356"/>
	<path style="fill:#75462E;" d="M477.287,238.643c-19.169,0-34.711-15.542-34.711-34.711v-8.678c0-9.589-7.767-17.356-17.356-17.356
		h-26.033c-4.79,0-8.678-3.888-8.678-8.678s3.888-8.678,8.678-8.678h26.033c19.169,0,34.711,15.542,34.711,34.711v8.678
		c0,9.589,7.767,17.356,17.356,17.356s17.356-7.767,17.356-17.356v-17.356c0-4.79,3.888-8.678,8.678-8.678s8.678,3.888,8.678,8.678
		v17.356C511.998,223.102,496.456,238.643,477.287,238.643z"/>
</g>
<path style="fill:#8F5436;" d="M451.254,360.133c-2.3,0-4.512-0.911-6.135-2.543l-45.489-45.489
	c-11.429-11.368-17.842-26.832-17.798-42.955v-21.825c0-4.79,3.888-8.678,8.678-8.678s8.678,3.888,8.678,8.678v21.825
	c-0.026,11.515,4.547,22.562,12.713,30.685l45.489,45.489c3.384,3.393,3.384,8.886,0,12.27
	C455.757,359.222,453.553,360.133,451.254,360.133z"/>
<g>
</g>
<g>
</g>
<g>
</g>
<g>
</g>
<g>
</g>
<g>
</g>
<g>
</g>
<g>
</g>
<g>
</g>
<g>
</g>
<g>
</g>
<g>
</g>
<g>
</g>
<g>
</g>
<g>
</g>
</svg>
