<svg height="461pt" viewBox="-30 0 461 461.752" width="461pt" xmlns="http://www.w3.org/2000/svg"><path d="m392.375 349.753906c-4.417969 0-8 3.578125-8 8v88h-368v-88c0-4.421875-3.582031-8-8-8s-8 3.578125-8 8v96c0 4.417969 3.582031 8 8 8h384c4.417969 0 8-3.582031 8-8v-96c0-4.421875-3.582031-8-8-8zm0 0"/><path d="m315.34375 28-35.039062-28-35.007813 28c-2.921875 2.339844-7.078125 2.339844-10 0l-34.976563-28-34.992187 28c-2.921875 2.339844-7.078125 2.339844-10 0l-34.953125-28-34.984375 28c-2.921875 2.339844-7.074219 2.339844-10 0l-27.015625-21.601562v407.355468h304v-407.371094l-27.046875 21.601563c-2.917969 2.332031-7.066406 2.332031-9.984375 0zm-194.96875 249.753906h-32c-4.417969 0-8-3.582031-8-8 0-4.421875 3.582031-8 8-8h32c4.417969 0 8 3.578125 8 8 0 4.417969-3.582031 8-8 8zm0-48h-32c-4.417969 0-8-3.582031-8-8 0-4.421875 3.582031-8 8-8h32c4.417969 0 8 3.578125 8 8 0 4.417969-3.582031 8-8 8zm0-48h-32c-4.417969 0-8-3.582031-8-8 0-4.421875 3.582031-8 8-8h32c4.417969 0 8 3.578125 8 8 0 4.417969-3.582031 8-8 8zm192 96h-160c-4.417969 0-8-3.582031-8-8 0-4.421875 3.582031-8 8-8h160c4.417969 0 8 3.578125 8 8 0 4.417969-3.582031 8-8 8zm0-48h-160c-4.417969 0-8-3.582031-8-8 0-4.421875 3.582031-8 8-8h160c4.417969 0 8 3.578125 8 8 0 4.417969-3.582031 8-8 8zm0-48h-160c-4.417969 0-8-3.582031-8-8 0-4.421875 3.582031-8 8-8h160c4.417969 0 8 3.578125 8 8 0 4.417969-3.582031 8-8 8zm0 0"/></svg>