<svg height="512pt" viewBox="0 0 512 512" width="512pt" xmlns="http://www.w3.org/2000/svg"><path d="m459.28125 52.722656c-34-34-79.199219-52.722656-127.28125-52.722656s-93.28125 18.722656-127.277344 52.722656c-26.125 26.121094-43.371094 59.085938-49.875 95.324219-5.738281 31.972656-2.832031 64.480469 8.386719 94.652344l-163.234375 163.234375v106.066406h157.277344v-42.425781h42.425781v-42.425781h42.429687v-51.214844l27.164063-27.164063c20.042969 7.453125 41.089844 11.226563 62.710937 11.226563 48.078126 0 93.277344-18.722656 127.269532-52.71875 70.183594-70.179688 70.183594-184.375.003906-254.554688zm-21.214844 233.34375c-28.328125 28.328125-65.992187 43.929688-106.050781 43.929688-20.9375 0-41.21875-4.238282-60.28125-12.59375l-9.382813-4.113282-50.21875 50.21875v33.640626h-42.429687v42.425781h-42.425781v42.425781h-76.0625l174.011718-174.015625-21.210937-21.210937-174.015625 174.015624v-42.429687l168.710938-168.707031-4.113282-9.386719c-24.988281-57.015625-12.6875-122.304687 31.335938-166.332031 28.332031-28.332032 66-43.933594 106.066406-43.933594s77.734375 15.601562 106.066406 43.933594c58.484375 58.484375 58.484375 153.648437 0 212.132812zm0 0"/><path d="m374.425781 77.574219c-16.023437 0-31.09375 6.242187-42.425781 17.574219-23.394531 23.394531-23.394531 61.457031 0 84.851562 11.332031 11.332031 26.398438 17.574219 42.425781 17.574219 16.027344 0 31.09375-6.242188 42.425781-17.574219 23.394532-23.394531 23.394532-61.460938 0-84.851562-11.332031-11.332032-26.398437-17.574219-42.425781-17.574219zm21.214844 81.214843c-5.667969 5.664063-13.199219 8.785157-21.214844 8.785157-8.011719 0-15.546875-3.121094-21.210937-8.785157-11.699219-11.699218-11.699219-30.730468 0-42.425781 5.664062-5.667969 13.199218-8.789062 21.210937-8.789062 8.015625 0 15.546875 3.121093 21.214844 8.789062 11.695313 11.695313 11.695313 30.726563 0 42.425781zm0 0"/></svg>