<svg height="475pt" viewBox="0 -5 475.312 475" width="475pt" xmlns="http://www.w3.org/2000/svg"><path d="m245.65625 401.636719v-97.480469h-16v97.472656c-6.777344 2.414063-12.113281 7.75-14.527344 14.527344h-33.472656v16h33.472656c3.3125 9.289062 12.109375 16 22.527344 16 10.414062 0 19.214844-6.710938 22.527344-16h33.472656v-16h-33.472656c-2.414063-6.777344-7.75-12.105469-14.527344-14.519531zm-8 30.519531c-4.417969 0-8-3.585938-8-8 0-4.417969 3.582031-8 8-8 4.414062 0 8 3.582031 8 8 0 4.414062-3.585938 8-8 8zm0 0"/><path d="m29.65625 219.46875v76.6875h16v-76.6875l18.34375 18.34375 11.3125-11.3125-37.65625-37.65625-37.65625 37.65625 11.3125 11.3125zm0 0"/><path d="m29.65625 312.15625h16v16h-16zm0 0"/><path d="m445.65625 200.15625h-16v76.6875l-18.34375-18.34375-11.3125 11.3125 37.65625 37.65625 37.65625-37.65625-11.3125-11.3125-18.34375 18.34375zm0 0"/><path d="m429.65625 168.15625h16v16h-16zm0 0"/><path d="m5.65625 456.15625c0 4.414062 3.582031 8 8 8h144c4.414062 0 8-3.585938 8-8v-56h-160zm0 0"/><path d="m157.65625 336.15625h-57.375c-2.105469 0-4.167969.847656-5.65625 2.34375l-29.65625 29.65625h-51.3125c-4.417969 0-8 3.582031-8 8v8h160v-40c0-4.410156-3.585938-8-8-8zm-8 32h-48v-16h48zm0 0"/><path d="m461.65625 336.15625h-57.375c-2.105469 0-4.167969.847656-5.65625 2.34375l-29.65625 29.65625h-51.3125c-4.417969 0-8 3.582031-8 8v8h160v-40c0-4.410156-3.585938-8-8-8zm-8 32h-48v-16h48zm0 0"/><path d="m309.65625 456.15625c0 4.414062 3.582031 8 8 8h144c4.414062 0 8-3.585938 8-8v-56h-160zm0 0"/><path d="m309.65625 200.15625v-16c0-4.417969-3.585938-8-8-8h-128c-4.417969 0-8 3.582031-8 8v16c0 4.414062 3.582031 8 8 8h128c4.414062 0 8-3.585938 8-8zm0 0"/><path d="m101.65625 184.15625h48c0-10.417969 6.710938-19.214844 16-22.527344v-18.953125c-9.289062-3.3125-16-12.113281-16-22.527343v-16c0-13.234376 10.769531-24 24-24h128c13.230469 0 24 10.765624 24 24v16c0 10.414062-6.710938 19.214843-16 22.527343v18.953125c9.289062 3.3125 16 12.109375 16 22.527344h40c35.289062 0 64-28.710938 64-64s-28.710938-64-64-64c-6.914062 0-13.824219 1.160156-20.519531 3.433594l-7.144531 2.414062-2.832032-6.976562c-13.585937-33.328125-45.574218-54.871094-81.503906-54.871094-28.550781 0-55.464844 14.007812-71.976562 37.464844l-2.894532 4.136718-4.976562-.84375c-2.96875-.511718-5.640625-.757812-8.152344-.757812-18.929688 0-36.144531 11.199219-43.839844 28.535156l-2.609375 5.863282-6.296875-1.269532c-3.6875-.753906-7.476562-1.136718-11.246094-1.136718-30.871093 0-56 25.128906-56 56 0 30.871093 25.121094 56.007812 55.992188 56.007812zm0 0"/><path d="m309.65625 264.15625c0-4.417969-3.585938-8-8-8h-128c-4.417969 0-8 3.582031-8 8v16c0 4.414062 3.582031 8 8 8h128c4.414062 0 8-3.585938 8-8zm0 0"/><path d="m309.65625 104.15625c0-4.417969-3.585938-8-8-8h-128c-4.417969 0-8 3.582031-8 8v16c0 4.414062 3.582031 8 8 8h128c4.414062 0 8-3.585938 8-8zm0 0"/><path d="m181.65625 144.15625h112v16h-112zm0 0"/><path d="m181.65625 224.15625h112v16h-112zm0 0"/></svg>