<svg height="512pt" viewBox="0 0 512 512" width="512pt" xmlns="http://www.w3.org/2000/svg"><path d="m459.363281 52.636719c-70.179687-70.183594-184.375-70.183594-254.558593 0-26.121094 26.121093-43.367188 59.085937-49.871094 95.324219-5.742188 31.96875-2.828125 64.480468 8.386718 94.652343l-163.320312 163.320313v84.851562l204.015625-204.011718 21.210937 21.210937-204.011718 204.015625h136.0625v-42.425781h42.425781v-42.425781h42.429687v-51.214844l27.253907-27.253906c30.171875 11.21875 62.679687 14.128906 94.648437 8.390624 36.242188-6.503906 69.203125-23.75 95.328125-49.875 70.183594-70.183593 70.183594-184.378906 0-254.558593zm-53.03125 116.671875c-17.574219 17.574218-46.066406 17.574218-63.640625 0-17.574218-17.574219-17.574218-46.066406 0-63.640625 17.574219-17.574219 46.066406-17.574219 63.640625 0s17.570313 46.066406 0 63.640625zm0 0"/></svg>