<svg height="392pt" viewBox="0 -44 392.468 392" width="392pt" xmlns="http://www.w3.org/2000/svg"><path d="m337.929688 304.316406h-283.859376l-27.035156-94.617187h337.929688zm0 0" fill="#d3843d"/><path d="m351.449219 182.664062c-1.261719 0-2.480469.109376-3.710938.183594-12.066406-43.996094-52.046875-74.503906-97.667969-74.527344h-108.140624c-45.621094.023438-85.601563 30.53125-97.667969 74.527344-1.234375-.074218-2.449219-.183594-3.710938-.183594-22.394531 0-40.550781 12.101563-40.550781 27.035157 0 14.929687 18.15625 27.035156 40.550781 27.035156 16.640625 0 30.921875-6.691406 37.171875-16.246094 6.253906 9.558594 20.535156 16.246094 37.175782 16.246094 22.394531 0 40.550781-12.105469 40.550781-27.035156 0 14.929687 18.15625 27.035156 40.550781 27.035156 22.398438 0 40.550781-12.105469 40.550781-27.035156 0 14.929687 18.15625 27.035156 40.554688 27.035156 16.636719 0 30.917969-6.691406 37.171875-16.246094 6.25 9.558594 20.53125 16.246094 37.171875 16.246094 22.394531 0 40.550781-12.105469 40.550781-27.035156 0-14.933594-18.15625-27.035157-40.550781-27.035157zm0 0" fill="#fdbd40"/><g fill="#fff"><path d="m196 169.144531c-3.730469.003907-6.757812-3.019531-6.757812-6.75 0 0 0-.003906 0-.007812v-27.03125c0-3.734375 3.023437-6.761719 6.757812-6.761719 3.730469 0 6.757812 3.027344 6.757812 6.761719v27.03125c.003907 3.730469-3.019531 6.757812-6.75 6.761719-.003906-.003907-.003906-.003907-.007812-.003907zm0 0"/><path d="m141.925781 169.144531c-3.734375-.003906-6.753906-3.035156-6.75-6.769531.003907-1.457031.476563-2.875 1.347657-4.039062l20.277343-27.035157c2.238281-2.988281 6.472657-3.59375 9.457031-1.359375 2.988282 2.238282 3.597657 6.472656 1.359376 9.457032 0 .003906-.003907.003906-.003907.007812l-20.277343 27.035156c-1.273438 1.707032-3.28125 2.710938-5.410157 2.703125zm0 0"/><path d="m250.074219 169.144531c-2.128907.007813-4.136719-.996093-5.410157-2.703125l-20.277343-27.035156c-2.238281-2.984375-1.632813-7.222656 1.351562-9.457031 2.988281-2.238281 7.222657-1.632813 9.460938 1.351562l20.273437 27.035157c2.238282 2.988281 1.628906 7.226562-1.355468 9.460937-1.167969.875-2.585938 1.347656-4.042969 1.347656zm0 0"/></g><path d="m54.070312 115.078125c-3.730468 0-6.757812-3.019531-6.761718-6.75 0-.003906 0-.007813 0-.007813-.011719-11.191406-9.082032-20.265624-20.273438-20.277343-3.734375 0-6.761718-3.023438-6.761718-6.757813s3.027343-6.757812 6.761718-6.757812c11.191406-.011719 20.261719-9.085938 20.273438-20.277344 0-3.730469 3.027344-6.757812 6.761718-6.757812 3.730469 0 6.757813 3.027343 6.757813 6.757812.011719 11.191406 9.082031 20.265625 20.273437 20.277344 3.734376 0 6.761719 3.023437 6.761719 6.757812s-3.027343 6.757813-6.761719 6.757813c-11.191406.011719-20.261718 9.085937-20.273437 20.277343 0 3.730469-3.019531 6.757813-6.753906 6.757813zm-6.78125-33.792969c2.570313 1.925782 4.851563 4.207032 6.78125 6.777344 1.925782-2.570312 4.207032-4.851562 6.777344-6.777344-2.570312-1.929687-4.851562-4.210937-6.777344-6.777344-1.929687 2.566407-4.210937 4.847657-6.78125 6.777344zm0 0" fill="#fdbd40"/><path d="m162.207031 81.285156c-3.730469 0-6.757812-3.023437-6.757812-6.753906v-.003906c.222656-6.648438 3.648437-12.777344 9.191406-16.449219 3.453125-2.878906 4.324219-3.886719 4.324219-6.058594 0-2.277343-1.054688-3.34375-4.328125-6.070312-5.542969-3.683594-8.964844-9.816407-9.191407-16.46875.226563-6.648438 3.648438-12.777344 9.191407-16.453125 3.273437-2.734375 4.328125-3.800782 4.328125-6.085938 0-3.734375 3.027344-6.757812 6.757812-6.757812 3.734375 0 6.761719 3.023437 6.761719 6.757812-.226563 6.648438-3.648437 12.78125-9.191406 16.464844-3.273438 2.726562-4.328125 3.796875-4.328125 6.074219 0 2.285156 1.054687 3.351562 4.328125 6.085937 5.542969 3.675782 8.964843 9.804688 9.191406 16.453125-.226563 6.648438-3.652344 12.773438-9.195313 16.449219-3.453124 2.875-4.324218 3.886719-4.324218 6.058594.003906 3.730468-3.019532 6.753906-6.75 6.757812-.003906 0-.007813 0-.007813 0zm0 0" fill="#e97424"/><path d="m196 81.285156c-3.730469 0-6.757812-3.023437-6.757812-6.753906v-.003906c.222656-6.648438 3.648437-12.777344 9.191406-16.449219 3.453125-2.878906 4.324218-3.886719 4.324218-6.058594 0-2.277343-1.054687-3.34375-4.332031-6.070312-5.539062-3.683594-8.960937-9.816407-9.1875-16.46875.226563-6.648438 3.648438-12.777344 9.1875-16.453125 3.277344-2.734375 4.332031-3.800782 4.332031-6.085938 0-3.734375 3.027344-6.757812 6.757813-6.757812 3.734375 0 6.757813 3.023437 6.757813 6.757812-.222657 6.648438-3.644532 12.78125-9.1875 16.464844-3.273438 2.726562-4.328126 3.796875-4.328126 6.074219 0 2.285156 1.054688 3.351562 4.328126 6.085937 5.542968 3.675782 8.964843 9.804688 9.1875 16.453125-.222657 6.648438-3.648438 12.773438-9.191407 16.449219-3.453125 2.875-4.324219 3.886719-4.324219 6.058594.003907 3.730468-3.019531 6.753906-6.75 6.757812-.003906 0-.003906 0-.007812 0zm0 0" fill="#e97424"/><path d="m229.792969 81.285156c-3.730469 0-6.757813-3.023437-6.757813-6.753906v-.003906c.222656-6.648438 3.648438-12.777344 9.191406-16.449219 3.453126-2.878906 4.324219-3.886719 4.324219-6.058594 0-2.277343-1.054687-3.34375-4.328125-6.070312-5.542968-3.683594-8.964844-9.816407-9.1875-16.46875.222656-6.648438 3.644532-12.777344 9.1875-16.453125 3.273438-2.734375 4.328125-3.800782 4.328125-6.085938 0-3.734375 3.027344-6.757812 6.757813-6.757812 3.734375 0 6.761718 3.023437 6.761718 6.757812-.226562 6.648438-3.648437 12.78125-9.1875 16.464844-3.273437 2.726562-4.332031 3.796875-4.332031 6.074219 0 2.285156 1.058594 3.351562 4.332031 6.085937 5.539063 3.675782 8.960938 9.804688 9.1875 16.453125-.226562 6.648438-3.652343 12.773438-9.195312 16.449219-3.453125 2.875-4.324219 3.886719-4.324219 6.058594.003907 3.730468-3.019531 6.753906-6.75 6.757812-.003906 0-.003906 0-.007812 0zm0 0" fill="#e97424"/></svg>