<?xml version="1.0" encoding="iso-8859-1"?>
<!-- Generator: Adobe Illustrator 19.0.0, SVG Export Plug-In . SVG Version: 6.00 Build 0)  -->
<svg version="1.1" id="Capa_1" xmlns="http://www.w3.org/2000/svg" xmlns:xlink="http://www.w3.org/1999/xlink" x="0px" y="0px"
	 viewBox="0 0 512.016 512.016" style="enable-background:new 0 0 512.016 512.016;" xml:space="preserve">
<path style="fill:#F8B64C;" d="M331.506,335.695c0.544,20.48,4.811,40.853,12.704,61.227c-58.795,12.8-117.557,12.8-176.331,0
	c16.96-44.16,16.96-88.427,0-132.587c58.773-12.8,117.547-12.8,176.331,0c-1.184,2.987-2.251,5.867-3.104,8.853H341
	c-6.933,20.693-10.123,41.493-9.504,62.293v0.213H331.506z"/>
<path style="fill:#CDD6E0;" d="M512.008,512.016h-512c0-55.147,29.227-105.28,75.413-132.8c7.253-4.373,14.837-8.213,22.837-11.307
	l81.707-32.107l0.565,0.096l75.477,61.024l75.627-61.013v-0.32l0.544,0.213l81.6,32.107c8,3.2,15.669,6.933,22.912,11.307
	c19.52,11.627,35.957,27.317,48.437,45.557C502.301,449.936,512.008,480.122,512.008,512.016"/>
<g>
	<path style="fill:#F2F2F2;" d="M382.674,512.016h129.333c0-31.893-9.707-62.08-26.88-87.253
		c-12.48-18.24-28.917-33.92-48.437-45.557c-7.253-4.373-14.912-8.107-22.912-11.307l-31.104-12.235V512.016z"/>
	<path style="fill:#F2F2F2;" d="M129.362,512.016H0.008c0-31.893,9.707-62.08,26.88-87.253c12.48-18.24,28.917-33.92,48.437-45.557
		c7.253-4.373,14.933-8.107,22.933-11.307l31.104-12.235L129.362,512.016L129.362,512.016z"/>
</g>
<g style="opacity:0.1;">
	<g>
		<path style="fill:#40596B;" d="M341.01,273.189c-6.933,20.693-10.123,41.493-9.504,62.293l0.171,0.384l-53.504,43.328
			l-62.187-46.059l33.291-41.067L341.01,273.189z"/>
	</g>
</g>
<g>
	<path style="fill:#F8B64C;" d="M175.784,192.922c1.664,19.147-7.627,35.605-20.747,36.747
		c-13.141,1.152-25.141-13.44-26.837-32.587c-1.664-19.147,7.627-35.595,20.768-36.747
		C162.088,159.184,174.088,173.775,175.784,192.922"/>
	<path style="fill:#F8B64C;" d="M383.837,197.093c-1.664,19.147-13.685,33.739-26.816,32.587
		c-13.141-1.141-22.443-17.6-20.747-36.747c1.664-19.147,13.664-33.739,26.816-32.587
		C376.221,161.488,385.512,177.946,383.837,197.093"/>
</g>
<path style="fill:#FFD15C;" d="M366.504,142.831v36.267c-0.107,7.68-0.523,15.36-1.483,22.933c-1.6,12.587-4.267,24.96-8,36.907
	c-9.088,28.907-24.331,55.573-44.917,78.08l-10.56,11.52c-9.6,10.56-23.253,16.533-37.547,16.533h-16
	c-14.187,0-27.829-6.08-37.44-16.533l-10.453-11.52c-14.603-15.893-26.56-34.027-35.413-53.333
	c-8.96-19.413-14.933-40.213-17.504-61.653c-0.96-7.573-1.483-15.253-1.483-22.933c-0.107-0.853-0.107-1.6-0.107-2.453v-33.173
	c0-10.453,1.483-20.693,4.245-30.293c13.12-46.187,55.691-80.107,106.251-80.107c50.453,0,93.024,33.92,106.123,80.107
	C365.032,122.565,366.504,132.592,366.504,142.831"/>
<g>
	<path style="fill:#ACB3BA;" d="M354.525,324.698c-0.107,0.117-0.224,0.117-0.224,0.117v-0.235
		C354.429,324.581,354.525,324.698,354.525,324.698"/>
	<path style="fill:#ACB3BA;" d="M355.005,324.581v0.235c0,0-0.128,0-0.224-0.117C354.781,324.698,354.888,324.581,355.005,324.581"
		/>
</g>
<g>
	<path style="fill:#40596B;" d="M436.69,379.216c-5.856,10.027-39.563,70.933-39.563,132.8h-97.707
		c9.269-37.76,31.787-133.12,32.747-176.213l81.6,32.107C421.778,371.109,429.448,374.842,436.69,379.216"/>
	<path style="fill:#40596B;" d="M212.69,512.016h-97.707c-0.107-61.867-33.685-122.773-39.563-132.8
		c7.253-4.373,14.837-8.213,22.837-11.307l81.707-32.107C180.925,378.896,203.421,474.255,212.69,512.016"/>
</g>
<g>
	<path style="fill:#F2F2F2;" d="M256.008,396.922l-75.477-61.024l-0.565-0.096c0.565,25.184,8.48,68.203,16.811,107.168
		L256.008,396.922z"/>
	<path style="fill:#F2F2F2;" d="M256.136,396.922l76.043-61.12c-0.565,25.184-8.48,68.203-16.811,107.168L256.136,396.922z"/>
</g>
<g>
	<path style="fill:#40596B;" d="M298.237,391.621L272.2,404.645v-3.552c0-2.325-1.899-4.213-4.213-4.213H244.05
		c-2.336,0-4.224,1.888-4.224,4.213v3.552l-26.037-13.024c-2.795-1.397-6.08,0.64-6.08,3.765V436.4c0,3.125,3.296,5.163,6.08,3.765
		l26.037-13.035v3.563c0,2.325,1.899,4.203,4.224,4.203h23.936c2.315,0,4.213-1.877,4.213-4.203v-3.563l26.037,13.035
		c2.795,1.397,6.08-0.64,6.08-3.765v-41.013C304.317,392.261,301.032,390.224,298.237,391.621"/>
	<path style="fill:#40596B;" d="M366.525,195.002c3.808-27.445,10.603-25.845,10.603-25.845
		c43.477-83.872-20.651-96.149-20.651-96.149c6.859-44.981-18.293-55.659-18.293-55.659c-77.771-42.699-151.755,6.859-151.755,6.859
		c-33.547,32.021-48.021,0-48.021,0c-27.456,61.76,0,76.245,0,76.245c-9.163,28.213-1.12,66.795-1.12,66.795l10.101,27.755
		l4.587-11.861l10.059-45.749c0,0,14.496-38.464,27.456-43.04c12.629-4.448,20.917,14.421,132.704,4.043
		c5.163-0.491,10.037,2.603,11.691,7.531c2.976,8.832,14.731,20.971,20.875,25.803c2.443,1.909,4.267,4.469,4.352,7.563
		l0.917,44.789L366.525,195.002z"/>
</g>
<g>
</g>
<g>
</g>
<g>
</g>
<g>
</g>
<g>
</g>
<g>
</g>
<g>
</g>
<g>
</g>
<g>
</g>
<g>
</g>
<g>
</g>
<g>
</g>
<g>
</g>
<g>
</g>
<g>
</g>
</svg>
