<svg height="464pt" viewBox="0 0 464 464.00046" width="464pt" xmlns="http://www.w3.org/2000/svg"><path d="m231.941406 0v56c73.449219-.011719 139.183594 45.585938 164.894532 114.386719 25.714843 68.796875 6 146.332031-49.453126 194.492187 11.179688 16.527344 18.054688 35.582032 20 55.441406 81.738282-58.8125 116.203126-163.632812 85.320313-259.476562-30.882813-95.839844-120.066406-160.8203125-220.761719-160.84375zm0 0" fill="#dbddde"/><path d="m55.941406 232c0-97.203125 78.800782-176 176-176v-56c-100.695312.0234375-189.875 65.003906-220.761718 160.84375-30.882813 95.84375 3.585937 200.664062 85.324218 259.476562 1.941406-19.859374 8.816406-38.914062 20-55.441406-38.527344-33.394531-60.628906-81.890625-60.5625-132.878906zm0 0" fill="#d1d3d4"/><path d="m231.941406 312h16c39.882813-.011719 77.15625 19.808594 99.441406 52.878906 55.453126-48.160156 75.167969-125.695312 49.453126-194.492187-25.710938-68.800781-91.445313-114.398438-164.894532-114.386719zm0 0" fill="#f4f5f5"/><path d="m55.941406 232c-.066406 50.988281 22.035156 99.484375 60.5625 132.878906 22.285156-33.070312 59.558594-52.890625 99.4375-52.878906h16v-256c-97.199218 0-176 78.796875-176 176zm0 0" fill="#f1f2f2"/><path d="m287.941406 224c0-30.929688-25.070312-56-56-56v112c30.929688 0 56-25.070312 56-56zm0 0" fill="#434f9c"/><path d="m175.941406 224c0 30.929688 25.074219 56 56 56v-112c-30.925781 0-56 25.070312-56 56zm0 0" fill="#2b3990"/><path d="m215.941406 312c-61.734375.046875-113.378906 46.882812-119.4375 108.320312 39.40625 28.488282 86.8125 43.777344 135.4375 43.679688v-152zm0 0" fill="#2b3990"/><path d="m247.941406 312h-16v152c48.625.097656 96.035156-15.191406 135.441406-43.679688-6.0625-61.4375-57.707031-108.273437-119.441406-108.320312zm0 0" fill="#434f9c"/></svg>