<?xml version="1.0" encoding="iso-8859-1"?>
<!-- Generator: Adobe Illustrator 19.0.0, SVG Export Plug-In . SVG Version: 6.00 Build 0)  -->
<svg version="1.1" id="Capa_1" xmlns="http://www.w3.org/2000/svg" xmlns:xlink="http://www.w3.org/1999/xlink" x="0px" y="0px"
	 viewBox="0 0 511.999 511.999" style="enable-background:new 0 0 511.999 511.999;" xml:space="preserve">
<g>
	<path style="fill:#FA892D;" d="M195.062,0.609c-2.991-1.239-6.43-0.553-8.719,1.734l-32,32c-1.5,1.5-2.343,3.535-2.343,5.657v112
		c0,4.418,3.582,8,8,8h32c4.418,0,8-3.582,8-8V8C200,4.764,198.051,1.847,195.062,0.609z"/>
	<path style="fill:#FA892D;" d="M357.658,34.343l-32-32c-2.288-2.288-5.729-2.972-8.719-1.734C313.95,1.847,312,4.764,312,8v144
		c0,4.418,3.582,8,8,8h32c4.418,0,8-3.582,8-8V40C360,37.878,359.158,35.843,357.658,34.343z"/>
</g>
<path style="fill:#FCC496;" d="M325.658,2.343C324.157,0.843,322.123,0,320.001,0H192c-2.122,0-4.156,0.843-5.657,2.343l-32,32
	c-2.287,2.288-2.972,5.729-1.733,8.718h206.781c1.238-2.989,0.554-6.43-1.733-8.718L325.658,2.343z"/>
<path style="fill:#FBA761;" d="M487.871,502.568l-64-352c-0.691-3.804-4.005-6.569-7.871-6.569H96c-3.866,0-7.18,2.765-7.871,6.569
	l-64,352c-0.878,4.837,2.958,9.431,7.871,9.431h448C484.913,512,488.75,507.405,487.871,502.568z"/>
<path style="fill:#FA892D;" d="M48.132,502.568l64-352c0.691-3.804,4.005-6.569,7.871-6.569H96c-3.866,0-7.18,2.765-7.871,6.569
	l-64,352c-0.878,4.837,2.958,9.431,7.871,9.431h24.003C51.09,512,47.254,507.405,48.132,502.568z"/>
<path style="fill:#E4DAD8;" d="M256,184c-79.401,0-144,64.598-144,144s64.599,144,144,144s144-64.598,144-144S335.402,184,256,184z"
	/>
<path style="fill:#F2EDEC;" d="M256,208c-66.168,0-120,53.832-120,120s53.832,120,120,120s120-53.832,120-120S322.168,208,256,208z"
	/>
<g>
	<path style="fill:#FAD000;" d="M320,248c-4.418,0-8,3.582-8,8v40h-8v-40c0-4.418-3.582-8-8-8s-8,3.582-8,8v40h-8v-40
		c0-4.418-3.582-8-8-8s-8,3.582-8,8v48c0,8.837,7.163,16,16,16h4v92c0,6.627,5.373,12,12,12s12-5.373,12-12v-92h4
		c8.837,0,16-7.163,16-16v-48C328,251.581,324.419,248,320,248z"/>
	<path style="fill:#FAD000;" d="M212,248L212,248c-2.209,0-4,1.791-4,4v160c0,6.627,5.373,12,12,12l0,0c6.627,0,12-5.373,12-12v-76
		h8c4.418,0,8-3.582,8-8v-44C248,264.117,231.883,248,212,248z"/>
</g>
<g>
</g>
<g>
</g>
<g>
</g>
<g>
</g>
<g>
</g>
<g>
</g>
<g>
</g>
<g>
</g>
<g>
</g>
<g>
</g>
<g>
</g>
<g>
</g>
<g>
</g>
<g>
</g>
<g>
</g>
</svg>
