<svg height="469pt" viewBox="-10 0 469 469.44825" width="469pt" xmlns="http://www.w3.org/2000/svg"><path d="m341.558594 426.667969h-341.335938v-320l106.667969-106.667969h234.667969zm0 0" fill="#e6ecf8"/><path d="m.222656 106.667969h85.335938v21.332031h-85.335938zm0 0" fill="#b9caeb"/><g fill="#2c2b46"><path d="m192.222656 320h85.335938v21.332031h-85.335938zm0 0"/><path d="m64.222656 128h85.335938v21.332031h-85.335938zm0 0"/><path d="m64.222656 170.667969h213.335938v21.332031h-213.335938zm0 0"/><path d="m64.222656 213.332031h213.335938v21.335938h-213.335938zm0 0"/><path d="m64.222656 256h85.335938v21.332031h-85.335938zm0 0"/></g><path d="m106.890625 106.667969h-106.667969l106.667969-106.667969zm0 0" fill="#f6f8fd"/><path d="m170.890625 448h21.332031v21.332031h-21.332031zm0 0" fill="#2c2b46"/><path d="m362.890625 234.667969 33.832031-33.832031c11.78125-11.78125 30.882813-11.78125 42.664063 0s11.78125 30.886718 0 42.667968l-33.828125 33.828125zm0 0" fill="#2c2b46"/><path d="m413.097656 269.792969-15.082031-15.085938 26.292969-26.289062c3.4375-3.457031 3.4375-9.042969 0-12.5l15.082031-15.085938c11.769531 11.789063 11.769531 30.882813 0 42.667969zm0 0" fill="#1f1e3c"/><path d="m170.890625 448 21.332031 21.332031c27.320313 0 53.519532-10.851562 72.839844-30.167969l155.578125-155.582031c8.332031-8.332031 8.332031-21.839843 0-30.167969l-33.828125-33.832031c-8.332031-8.332031-21.839844-8.332031-30.171875 0l-155.578125 155.582031c-19.320312 19.316407-30.171875 45.515626-30.171875 72.835938zm0 0" fill="#4186d6"/><path d="m192.328125 469.449219-18.207031-18.230469 15.082031-15.082031 11.417969 11.414062c18.628906-2.015625 36.027344-10.289062 49.351562-23.46875l155.585938-155.582031-16.917969-16.917969 15.082031-15.082031 16.917969 16.917969c8.332031 8.328125 8.332031 21.835937 0 30.164062l-155.582031 155.585938c-18.207032 18.027343-42.414063 28.722656-68 30.050781zm0 0" fill="#1e70ce"/><path d="m320.222656 256 21.335938-21.332031 64 64-21.335938 21.332031zm0 0" fill="#95afe2"/><path d="m422.472656 281.75c-5.890625-5.890625-15.441406-5.890625-21.332031 0l-38.25 38.25v21.332031l-42.667969 42.667969h-21.332031l-16.914063 16.914062c-5.890624 5.890626-5.890624 15.445313 0 21.335938 5.890626 5.890625 15.441407 5.890625 21.332032 0l119.164062-119.164062c5.890625-5.890626 5.890625-15.441407 0-21.332032zm0 0" fill="#cfdbf2"/><path d="m216.683594 387.125 138.664062-138.667969 15.085938 15.085938-138.667969 138.664062zm0 0" fill="#669ede"/><path d="m334.011719 269.800781 21.339843-21.339843 15.082032 15.082031-21.335938 21.339843zm0 0" fill="#cfdbf2"/></svg>