<?xml version="1.0" encoding="iso-8859-1"?>
<!-- Generator: Adobe Illustrator 19.0.0, SVG Export Plug-In . SVG Version: 6.00 Build 0)  -->
<svg version="1.1" id="Capa_1" xmlns="http://www.w3.org/2000/svg" xmlns:xlink="http://www.w3.org/1999/xlink" x="0px" y="0px"
	 viewBox="0 0 512 512" style="enable-background:new 0 0 512 512;" xml:space="preserve">
<path id="SVGCleanerId_0" style="fill:#B78046;" d="M425.681,31.767c-6.481,0-11.736,5.254-11.736,11.736c0,9.94,0,388.44,0,429.004
	h23.471c0-20.551,0-412.656,0-429.004C437.416,37.021,432.162,31.767,425.681,31.767z"/>
<g>
	<path id="SVGCleanerId_0_1_" style="fill:#B78046;" d="M425.681,31.767c-6.481,0-11.736,5.254-11.736,11.736
		c0,9.94,0,388.44,0,429.004h23.471c0-20.551,0-412.656,0-429.004C437.416,37.021,432.162,31.767,425.681,31.767z"/>
</g>
<path style="fill:#A86D38;" d="M433.609,34.868c-2.089-1.919-4.868-3.101-7.928-3.101c-6.481,0-11.736,5.254-11.736,11.736
	c0,9.94,0,388.44,0,429.004h15.857c0-40.564,0-419.064,0-429.004C429.802,40.082,431.274,37.013,433.609,34.868z"/>
<path style="fill:#616584;" d="M168.582,169.409v37.704c0,38.506,31.216,69.722,69.722,69.722l0,0
	c38.506,0,69.722-31.216,69.722-69.722v-37.704H168.582z"/>
<path style="fill:#444A63;" d="M189.187,207.113V169.41h-20.605v37.704c0,38.506,31.215,69.722,69.722,69.722l0,0
	c3.501,0,6.94-0.265,10.302-0.763C214.986,271.091,189.187,242.118,189.187,207.113z"/>
<path style="fill:#B78046;" d="M41.924,31.767c-6.481,0-11.736,5.254-11.736,11.736c0,9.94,0,388.44,0,429.004h23.471
	c0-20.551,0-412.656,0-429.004C53.659,37.021,48.405,31.767,41.924,31.767z"/>
<path style="fill:#A86D38;" d="M49.852,34.868c-2.089-1.919-4.868-3.101-7.928-3.101c-6.481,0-11.736,5.254-11.736,11.736
	c0,9.94,0,388.44,0,429.004h15.857c0-40.564,0-419.064,0-429.004C46.045,40.082,47.517,37.013,49.852,34.868z"/>
<path style="fill:#E1F1FB;" d="M500.264,71.15c-4.561,0-485.014,0-488.529,0C5.254,71.15,0,76.405,0,82.886
	s5.254,11.736,11.735,11.736c24.239,0,471.866,0,488.529,0c6.482,0,11.736-5.255,11.736-11.736
	C512,76.405,506.746,71.15,500.264,71.15z"/>
<g>
	<path style="fill:#BDE2EF;" d="M500.264,78.765c-16.663,0-464.29,0-488.529,0c-3.42,0-6.489-1.472-8.634-3.807
		C1.182,77.047,0,79.825,0,82.886c0,6.481,5.254,11.736,11.735,11.736c24.239,0,471.866,0,488.529,0
		c6.482,0,11.736-5.255,11.736-11.736c0-3.061-1.182-5.839-3.101-7.928C506.754,77.292,503.685,78.765,500.264,78.765z"/>
	<path style="fill:#BDE2EF;" d="M238.303,43.732c-43.059,0-77.749,34.94-77.749,77.749v29.797c0,4.267,3.459,7.727,7.727,7.727
		c4.267,0,7.727-3.459,7.727-7.727V121.48c0-34.357,27.959-62.295,62.295-62.295c34.405,0,62.295,28.009,62.295,62.295v29.797
		c0,4.267,3.459,7.727,7.727,7.727s7.727-3.459,7.727-7.727V121.48C316.052,78.847,281.504,43.732,238.303,43.732z"/>
</g>
<path style="fill:#767CA3;" d="M311.919,172.5H164.688c-5.523,0-10-4.477-10-10v-3.471c0-5.523,4.477-10,10-10H311.92
	c5.523,0,10,4.477,10,10v3.471C321.919,168.022,317.442,172.5,311.919,172.5z"/>
<path style="fill:#616584;" d="M175.293,162.197v-2.866c0-5.69,4.613-10.302,10.302-10.302H164.99
	c-5.69,0-10.302,4.612-10.302,10.302v2.866c0,5.69,4.613,10.302,10.302,10.302h20.605
	C179.905,172.5,175.293,167.887,175.293,162.197z"/>
<path style="fill:#A86D38;" d="M40.099,129.879c-2.496-5.981,0.328-12.854,6.309-15.35l10.257-4.282
	c13.623-5.687,22.425-18.9,22.425-33.662V43.502c0-6.481,5.255-11.736,11.736-11.736s11.736,5.254,11.736,11.736v33.084
	c0,24.261-14.465,45.976-36.854,55.321l-10.257,4.282C49.462,138.686,42.595,135.857,40.099,129.879z"/>
<path style="fill:#995F30;" d="M52.651,127.934l12.691-5.297c16.856-7.036,27.746-23.384,27.746-41.649V40.055
	c0-2.728,0.766-5.27,2.074-7.451c-1.343-0.535-2.803-0.838-4.336-0.838c-6.481,0-11.735,5.254-11.735,11.736v33.084
	c0,14.762-8.802,27.975-22.425,33.662l-10.257,4.282c-5.981,2.497-8.805,9.369-6.309,15.35c1.018,2.437,2.765,4.344,4.879,5.587
	C46.428,132.184,49.079,129.426,52.651,127.934z"/>
<path id="SVGCleanerId_1" style="fill:#A86D38;" d="M423.856,129.879c-2.496-5.981,0.328-12.854,6.309-15.35l10.257-4.282
	c13.623-5.687,22.425-18.9,22.425-33.662V43.502c0-6.481,5.255-11.736,11.736-11.736s11.736,5.254,11.736,11.736v33.084
	c0,24.261-14.465,45.976-36.854,55.321l-10.257,4.282C433.219,138.686,426.352,135.857,423.856,129.879z"/>
<g>
	<path id="SVGCleanerId_1_1_" style="fill:#A86D38;" d="M423.856,129.879c-2.496-5.981,0.328-12.854,6.309-15.35l10.257-4.282
		c13.623-5.687,22.425-18.9,22.425-33.662V43.502c0-6.481,5.255-11.736,11.736-11.736s11.736,5.254,11.736,11.736v33.084
		c0,24.261-14.465,45.976-36.854,55.321l-10.257,4.282C433.219,138.686,426.352,135.857,423.856,129.879z"/>
</g>
<path style="fill:#995F30;" d="M436.408,127.934l12.691-5.297c16.856-7.036,27.746-23.384,27.746-41.649V40.055
	c0-2.728,0.766-5.27,2.074-7.451c-1.343-0.535-2.803-0.838-4.336-0.838c-6.481,0-11.735,5.254-11.735,11.736v33.084
	c0,14.762-8.802,27.975-22.425,33.662l-10.257,4.282c-5.981,2.497-8.805,9.369-6.309,15.35c1.018,2.437,2.765,4.344,4.879,5.587
	C430.185,132.184,432.835,129.426,436.408,127.934z"/>
<path style="fill:#99CC56;" d="M451.542,480.233H15.147c-4.267,0-7.727-3.459-7.727-7.727s3.459-7.727,7.727-7.727h436.396
	c4.267,0,7.727,3.459,7.727,7.727S455.81,480.233,451.542,480.233z"/>
<path style="fill:#FED159;" d="M268.744,374.399c-0.879-26.934-20.462-45.831-29.99-53.464c-2.055-1.646-5.12-0.308-5.308,2.318
	c-1.493,20.828-11.196,36.426-15.587,42.507c-1.185,1.641-3.373,2.191-5.193,1.304l-3.505-1.709
	c-1.642-0.801-3.583,0.177-3.951,1.966c-7.606,36.937,26.276,48.502,26.276,48.502l0,0c2.084,0.878,4.417,0.998,6.569,0.302
	C246.987,413.24,269.68,403.067,268.744,374.399z"/>
<g>
	<path style="fill:#FCB75B;" d="M225.815,367.32c0.368-1.789,2.309-2.767,3.951-1.966l3.505,1.709
		c1.82,0.887,4.008,0.337,5.193-1.304c3.567-4.94,10.641-16.163,13.97-31.368c-4.959-6-10.049-10.549-13.679-13.457
		c-2.054-1.646-5.12-0.307-5.308,2.318c-1.493,20.828-11.196,36.426-15.587,42.507c-1.185,1.641-3.373,2.192-5.193,1.304
		l-3.505-1.709c-1.642-0.8-3.583,0.177-3.951,1.966c-7.606,36.937,26.276,48.502,26.276,48.502c2.084,0.878,4.417,0.998,6.569,0.302
		c2.041-0.66,4.804-1.706,7.837-3.26C236.502,407.466,220.316,394.026,225.815,367.32z"/>
	<path style="fill:#FCB75B;" d="M238.995,379.052c-0.667-2.157-3.489-2.68-4.886-0.906c-4.497,5.712-11.982,16.9-14.641,30.791
		c6.245,4.912,12.018,6.886,12.018,6.886c2.084,0.878,4.417,0.998,6.569,0.303c4.055-1.31,10.943-4.131,17.172-9.493
		C249.85,400.87,242.864,391.563,238.995,379.052z"/>
</g>
<path style="fill:#ED9A37;" d="M238.055,416.125c1.782-0.576,4.114-1.447,6.695-2.693c0.205-0.099,0.414-0.206,0.623-0.309
	c0.155-0.077,0.308-0.151,0.465-0.232c0.017-0.009,0.035-0.019,0.052-0.028c-6.265-3.602-15.546-10.792-19.402-23.104
	c-2.914,5.391-5.629,11.908-7.02,19.177c6.245,4.912,12.018,6.886,12.018,6.886c0.521,0.219,1.058,0.392,1.603,0.515
	c0.273,0.062,0.548,0.112,0.824,0.15C235.294,416.676,236.71,416.56,238.055,416.125z"/>
<path style="fill:#A86D38;" d="M150.083,417.623l4.642-15.652c1.443-4.867,6.607-7.669,11.474-6.225l145.097,43.03
	c4.868,1.443,7.669,6.607,6.226,11.474l-4.642,15.652c-1.443,4.868-6.607,7.669-11.475,6.226l-145.097-43.03
	C151.441,427.654,148.64,422.49,150.083,417.623z"/>
<path style="fill:#995F30;" d="M317.157,448.852c0.231-0.068,0.455-0.148,0.683-0.222c0.473-4.344-2.214-8.571-6.543-9.855
	l-113.729-33.727l-47.116,13.973c-0.231,0.068-0.457,0.148-0.685,0.222c-0.473,4.344,2.214,8.571,6.543,9.855l113.73,33.727
	L317.157,448.852z"/>
<path style="fill:#B78046;" d="M317.522,417.623l-4.642-15.652c-1.443-4.867-6.607-7.669-11.474-6.225l-145.097,43.03
	c-4.868,1.443-7.669,6.607-6.226,11.474l4.642,15.652c1.443,4.868,6.607,7.669,11.475,6.226l145.097-43.03
	C316.164,427.654,318.965,422.49,317.522,417.623z"/>
<path style="fill:#E1F1FB;" d="M178.043,71.15c-5.866,6.899-10.557,14.822-13.744,23.471c5.531,0,13.176,0,18.836,0
	c4.488-9.352,11.248-17.408,19.553-23.471C195.073,71.15,185.477,71.15,178.043,71.15z"/>
<path style="fill:#BDE2EF;" d="M194.046,78.765c-7.324,0-14.569,0-21.707,0c-3.252,4.926-5.969,10.235-8.04,15.857
	c6.196,0,12.478,0,18.836,0C185.943,88.772,189.639,83.43,194.046,78.765z"/>
<g>
</g>
<g>
</g>
<g>
</g>
<g>
</g>
<g>
</g>
<g>
</g>
<g>
</g>
<g>
</g>
<g>
</g>
<g>
</g>
<g>
</g>
<g>
</g>
<g>
</g>
<g>
</g>
<g>
</g>
</svg>
