<svg xmlns="http://www.w3.org/2000/svg" height="702pt" version="1.1" viewBox="0 -12 702.2 702" width="702pt">
<g id="surface1">
<path d="M 601.398438 89.800781 C 587.398438 43.898438 545.101562 12.398438 497 12.199219 L 435.898438 12.199219 L 435.898438 36.398438 L 497 36.398438 C 534.398438 36.5 567.300781 61 578.101562 96.800781 L 625.398438 254.300781 L 650.699219 254.300781 Z M 100.800781 89.800781 L 51.398438 254.300781 L 76.699219 254.300781 L 124.101562 96.800781 C 134.898438 61.101562 167.800781 36.5 205.199219 36.398438 L 266.300781 36.398438 L 266.300781 12.199219 L 205.199219 12.199219 C 157.199219 12.398438 114.898438 43.898438 100.800781 89.800781 Z M 100.800781 89.800781 " style=" stroke:none;fill-rule:nonzero;fill:rgb(34.117647%,64.313725%,100%);fill-opacity:1;" />
<path d="M 254.199219 24.300781 C 254.199219 27.5 254.800781 30.699219 256.101562 33.699219 C 254.898438 30.699219 254.199219 27.5 254.199219 24.300781 Z M 254.199219 24.300781 " style=" stroke:none;fill-rule:nonzero;fill:rgb(87.843137%,87.843137%,88.627451%);fill-opacity:1;" />
<path d="M 278.5 48.5 C 275.300781 48.5 272.101562 47.898438 269.101562 46.601562 C 272 47.898438 275.199219 48.5 278.5 48.5 Z M 278.5 48.5 " style=" stroke:none;fill-rule:nonzero;fill:rgb(87.843137%,87.843137%,88.627451%);fill-opacity:1;" />
<path d="M 423.699219 48.5 C 437.101562 48.5 447.898438 37.699219 447.898438 24.300781 C 447.898438 37.699219 437.101562 48.5 423.699219 48.5 Z M 423.699219 48.5 " style=" stroke:none;fill-rule:nonzero;fill:rgb(87.843137%,87.843137%,88.627451%);fill-opacity:1;" />
<path d="M 256.101562 33.699219 C 258.601562 39.5 263.199219 44.199219 269 46.601562 C 263.300781 44.101562 258.699219 39.5 256.101562 33.699219 Z M 256.101562 33.699219 " style=" stroke:none;fill-rule:nonzero;fill:rgb(87.843137%,87.843137%,88.627451%);fill-opacity:1;" />
<path d="M 351.101562 133.300781 C 290.898438 133.300781 242.101562 182.101562 242.101562 242.300781 C 242.101562 302.5 290.898438 351.300781 351.101562 351.300781 C 411.300781 351.300781 460.101562 302.5 460.101562 242.300781 C 460.101562 182.101562 411.300781 133.300781 351.101562 133.300781 Z M 351.101562 302.800781 L 351.101562 242.300781 Z M 351.101562 302.800781 " style=" stroke:none;fill-rule:nonzero;fill:rgb(36.862745%,67.45098%,14.117647%);fill-opacity:1;" />
<path d="M 641.699219 242.199219 L 460.101562 242.199219 C 460.101562 302.398438 411.300781 351.199219 351.101562 351.199219 L 351.101562 387.5 C 364.5 387.5 375.300781 398.300781 375.300781 411.699219 L 375.300781 605.398438 C 375.300781 618.800781 364.5 629.601562 351.101562 629.601562 L 351.101562 678.101562 L 480.398438 678.101562 C 579.101562 678.101562 662 603.898438 672.898438 505.800781 L 702.199219 242.199219 Z M 520.601562 605.5 C 520.601562 618.898438 509.800781 629.699219 496.398438 629.699219 C 483 629.699219 472.199219 618.898438 472.199219 605.5 L 472.199219 411.699219 C 472.199219 398.300781 483 387.5 496.398438 387.5 C 509.800781 387.5 520.601562 398.300781 520.601562 411.699219 Z M 520.601562 605.5 " style=" stroke:none;fill-rule:nonzero;fill:rgb(74.117647%,85.882353%,100%);fill-opacity:1;" />
<path d="M 326.898438 605.5 L 326.898438 411.699219 C 326.898438 398.300781 337.699219 387.5 351.101562 387.5 L 351.101562 351.199219 C 290.898438 351.199219 242.101562 302.398438 242.101562 242.199219 L 0 242.199219 L 29.300781 505.800781 C 40.199219 603.898438 123.101562 678.101562 221.800781 678.101562 L 351.101562 678.101562 L 351.101562 629.699219 C 337.699219 629.699219 326.898438 618.800781 326.898438 605.5 Z M 230 605.5 C 230 618.898438 219.199219 629.699219 205.800781 629.699219 C 192.398438 629.699219 181.601562 618.898438 181.601562 605.5 L 181.601562 411.699219 C 181.601562 398.300781 192.398438 387.5 205.800781 387.5 C 219.199219 387.5 230 398.300781 230 411.699219 Z M 230 605.5 " style=" stroke:none;fill-rule:nonzero;fill:rgb(60.784314%,78.823529%,100%);fill-opacity:1;" />
<path d="M 326.898438 411.699219 L 326.898438 605.398438 C 326.898438 618.800781 337.699219 629.601562 351.101562 629.601562 L 351.101562 387.5 C 337.699219 387.5 326.898438 398.398438 326.898438 411.699219 Z M 326.898438 411.699219 " style=" stroke:none;fill-rule:nonzero;fill:rgb(14.117647%,53.333333%,100%);fill-opacity:1;" />
<path d="M 375.300781 605.5 L 375.300781 411.699219 C 375.300781 398.300781 364.5 387.5 351.101562 387.5 L 351.101562 629.601562 C 364.5 629.699219 375.300781 618.800781 375.300781 605.5 Z M 375.300781 605.5 " style=" stroke:none;fill-rule:nonzero;fill:rgb(14.117647%,53.333333%,100%);fill-opacity:1;" />
<path d="M 205.800781 387.5 C 192.398438 387.5 181.601562 398.300781 181.601562 411.699219 L 181.601562 605.398438 C 181.601562 618.800781 192.398438 629.601562 205.800781 629.601562 C 219.199219 629.601562 230 618.800781 230 605.398438 L 230 411.699219 C 230 398.398438 219.199219 387.5 205.800781 387.5 Z M 205.800781 387.5 " style=" stroke:none;fill-rule:nonzero;fill:rgb(14.117647%,53.333333%,100%);fill-opacity:1;" />
<path d="M 496.398438 387.5 C 483 387.5 472.199219 398.300781 472.199219 411.699219 L 472.199219 605.398438 C 472.199219 618.800781 483 629.601562 496.398438 629.601562 C 509.800781 629.601562 520.601562 618.800781 520.601562 605.398438 L 520.601562 411.699219 C 520.601562 398.398438 509.800781 387.5 496.398438 387.5 Z M 496.398438 387.5 " style=" stroke:none;fill-rule:nonzero;fill:rgb(14.117647%,53.333333%,100%);fill-opacity:1;" />
<path d="M 411.601562 254.398438 L 290.601562 254.398438 C 283.898438 254.398438 278.5 249 278.5 242.300781 C 278.5 235.601562 283.898438 230.199219 290.601562 230.199219 L 411.699219 230.199219 C 418.398438 230.199219 423.800781 235.601562 423.800781 242.300781 C 423.800781 249 418.300781 254.398438 411.601562 254.398438 Z M 411.601562 254.398438 " style=" stroke:none;fill-rule:nonzero;fill:rgb(94.509804%,94.901961%,94.901961%);fill-opacity:1;" />
<path d="M 351.101562 314.898438 C 344.398438 314.898438 339 309.5 339 302.800781 L 339 181.699219 C 339 175 344.398438 169.601562 351.101562 169.601562 C 357.800781 169.601562 363.199219 175 363.199219 181.699219 L 363.199219 302.800781 C 363.199219 309.5 357.800781 314.898438 351.101562 314.898438 Z M 351.101562 314.898438 " style=" stroke:none;fill-rule:nonzero;fill:rgb(94.509804%,94.901961%,94.901961%);fill-opacity:1;" />
<path d="M 261.398438 41.398438 C 263.601562 43.601562 266.199219 45.398438 269.101562 46.601562 C 272.101562 47.898438 275.300781 48.5 278.5 48.5 L 423.800781 48.5 C 437.199219 48.5 448 37.699219 448 24.300781 C 448 10.898438 437.101562 0.101562 423.699219 0.101562 L 278.5 0.101562 C 265.101562 0.101562 254.300781 10.898438 254.300781 24.300781 C 254.300781 27.5 254.898438 30.699219 256.199219 33.699219 C 257.398438 36.601562 259.101562 39.199219 261.398438 41.398438 Z M 261.398438 41.398438 " style=" stroke:none;fill-rule:nonzero;fill:rgb(0%,42.745098%,94.117647%);fill-opacity:1;" />
</g>
</svg>