<?xml version="1.0" encoding="iso-8859-1"?>
<!-- Generator: Adobe Illustrator 19.0.0, SVG Export Plug-In . SVG Version: 6.00 Build 0)  -->
<svg version="1.1" id="Capa_1" xmlns="http://www.w3.org/2000/svg" xmlns:xlink="http://www.w3.org/1999/xlink" x="0px" y="0px"
	 viewBox="0 0 463.995 463.995" style="enable-background:new 0 0 463.995 463.995;" xml:space="preserve">
<path style="fill:#ED1C24;" d="M291.355,397.92l-53.04-54.32c-5.943-6.208-15.792-6.423-22-0.48c-0.163,0.157-0.324,0.317-0.48,0.48
	l-6.8,6.96c-1.174,1.2-2.149,2.58-2.888,4.088l-9.912,20.232c-1.845,3.927-6.524,5.615-10.451,3.77
	c-0.846-0.398-1.615-0.943-2.269-1.61L135.995,328l-49.04-47.52c-3.098-3.038-3.147-8.012-0.109-11.11
	c0.655-0.668,1.423-1.213,2.269-1.61l20.08-9.84c1.608-0.788,3.08-1.828,4.36-3.08l6.84-6.68c6.208-5.943,6.423-15.792,0.48-22
	c-0.157-0.163-0.317-0.324-0.48-0.48l-54.32-53.04c-6.445-6.16-16.595-6.16-23.04,0l-7.28,7.12c-3.697,3.626-6.801,7.81-9.2,12.4
	L5.115,234c-9.362,18.375-5.629,40.709,9.2,55.04l45.6,48.536C83.969,363.192,108.843,388,134.539,412l40.416,37.68
	c14.331,14.829,36.665,18.562,55.04,9.2l41.84-21.44c4.59-2.399,8.774-5.503,12.4-9.2l7.12-7.28
	C297.516,414.515,297.516,404.365,291.355,397.92L291.355,397.92z"/>
<path style="fill:#BDCCD4;" d="M447.995,192H339.883c-2.454,0-4.772,1.127-6.288,3.056l-71.312,90.76
	c-2.732,3.473-7.761,4.074-11.234,1.342c-1.928-1.516-3.054-3.833-3.054-6.286V200c0-4.418-3.582-8-8-8h-80c-8.837,0-16-7.163-16-16
	V16c0-8.837,7.163-16,16-16h288c8.837,0,16,7.163,16,16v160C463.995,184.837,456.832,192,447.995,192L447.995,192z"/>
<path style="fill:#603813;" d="M375.995,88c4.418,0,8-3.582,8-8s-3.582-8-8-8h-144c-4.418,0-8,3.582-8,8s3.582,8,8,8h16v72
	c0,4.418,3.582,8,8,8c4.418,0,8-3.582,8-8v-48h80v48c0,4.418,3.582,8,8,8s8-3.582,8-8V88H375.995z M343.995,96h-80v-8h80V96z"/>
<g>
	<path style="fill:#8C6239;" d="M223.995,104h-40V48c0-4.418-3.582-8-8-8s-8,3.582-8,8v112c0,4.418,3.582,8,8,8s8-3.582,8-8v-40h32
		v40c0,4.418,3.582,8,8,8s8-3.582,8-8v-48C231.995,107.582,228.414,104,223.995,104z"/>
	<path style="fill:#8C6239;" d="M431.995,40c-4.418,0-8,3.582-8,8v56h-40c-4.418,0-8,3.582-8,8v48c0,4.418,3.582,8,8,8s8-3.582,8-8
		v-40h32v40c0,4.418,3.582,8,8,8s8-3.582,8-8V48C439.995,43.582,436.414,40,431.995,40z"/>
</g>
<g>
	<path style="fill:#F8CF26;" d="M411.995,232c-6.572-0.289-11.666-5.852-11.376-12.424s5.852-11.666,12.424-11.376
		s11.666,5.852,11.376,12.424c-0.272,6.167-5.209,11.105-11.376,11.376C412.667,232,412.315,232,411.995,232z M407.995,220.344
		c0.193,2.201,2.134,3.828,4.334,3.635c1.052-0.092,2.024-0.597,2.706-1.403c0.688-0.811,1.033-1.859,0.96-2.92
		c-0.094-1.052-0.6-2.024-1.408-2.704c-0.803-0.713-1.867-1.058-2.936-0.952c-2.2,0.191-3.829,2.128-3.64,4.328L407.995,220.344z"/>
	<path style="fill:#F8CF26;" d="M403.995,280c-0.806-0.001-1.61-0.081-2.4-0.24c-6.494-1.324-10.684-7.662-9.36-14.156
		c0.637-3.124,2.491-5.865,5.152-7.62c2.653-1.767,5.905-2.393,9.024-1.736c6.485,1.332,10.667,7.665,9.344,14.152
		C414.615,275.988,409.699,280.001,403.995,280L403.995,280z M400.075,267.2c-0.44,2.165,0.959,4.276,3.124,4.716
		c2.165,0.44,4.276-0.959,4.716-3.124c0.438-2.157-0.949-4.263-3.104-4.712c-2.163-0.451-4.281,0.937-4.732,3.1
		C400.078,267.187,400.077,267.193,400.075,267.2l7.84,1.6L400.075,267.2z"/>
	<path style="fill:#F8CF26;" d="M387.995,328c-6.627-0.007-11.995-5.385-11.988-12.012c0.007-6.627,5.385-11.995,12.012-11.988
		c6.627,0.007,11.995,5.385,11.988,12.012c-0.002,1.966-0.487,3.901-1.412,5.636C396.52,325.573,392.436,328.021,387.995,328z
		 M387.995,312c-1.477,0.001-2.834,0.816-3.528,2.12c-1.038,1.95-0.297,4.372,1.653,5.41c1.95,1.038,4.372,0.297,5.41-1.653
		c0.496-0.933,0.603-2.025,0.297-3.037c-0.306-1.027-1.009-1.891-1.952-2.4C389.294,312.142,388.649,311.991,387.995,312
		L387.995,312z"/>
	<path style="fill:#F8CF26;" d="M355.995,368c-6.627-0.003-11.997-5.379-11.994-12.006s5.379-11.997,12.006-11.994
		s11.997,5.379,11.994,12.006c-0.002,3.147-1.239,6.167-3.446,8.41C362.301,366.715,359.215,368.007,355.995,368z M353.139,353.208
		c-1.547,1.577-1.522,4.11,0.055,5.657s4.11,1.522,5.657-0.055c1.544-1.574,1.522-4.101-0.048-5.649
		c-1.573-1.551-4.106-1.533-5.657,0.041C353.144,353.203,353.142,353.206,353.139,353.208l5.696,5.6L353.139,353.208z"/>
	<path style="fill:#F8CF26;" d="M315.995,400c-1.126-0.003-2.246-0.161-3.328-0.472c-6.336-1.836-9.984-8.461-8.148-14.796
		c1.836-6.336,8.461-9.984,14.796-8.148s9.984,8.461,8.148,14.796C325.985,396.485,321.31,399.998,315.995,400z M315.995,384
		c-1.782,0.002-3.348,1.183-3.84,2.896c-0.627,2.118,0.582,4.344,2.7,4.971c2.118,0.627,4.344-0.582,4.971-2.7
		c0.304-1.027,0.183-2.133-0.335-3.071C318.796,384.811,317.456,384.008,315.995,384z"/>
	<path style="fill:#F8CF26;" d="M75.995,152c-6.627-0.029-11.977-5.424-11.948-12.051c0.009-2.048,0.542-4.06,1.548-5.845
		c3.256-5.772,10.575-7.812,16.348-4.555c5.772,3.256,7.812,10.575,4.555,16.348C84.362,149.684,80.344,152.019,75.995,152z
		 M72.531,138.032c-1.089,1.924-0.412,4.367,1.512,5.456c1.924,1.089,4.367,0.412,5.456-1.512l0,0L72.531,138.032z M72.531,138.032
		l6.976,3.936c1.089-1.924,0.412-4.367-1.512-5.456c-1.924-1.089-4.367-0.412-5.456,1.512l0,0L72.531,138.032z"/>
	<path style="fill:#F8CF26;" d="M107.995,112c-6.627,0-12-5.372-12.001-11.999c0-6.627,5.372-12,11.999-12.001
		c6.627,0,12,5.372,12.001,11.999c0,3.247-1.316,6.356-3.647,8.617C114.109,110.786,111.113,112,107.995,112z M107.995,96
		c-2.169,0.018-3.914,1.791-3.896,3.96s1.791,3.914,3.96,3.896c2.169-0.018,3.914-1.791,3.896-3.96
		c-0.017-2.144-1.752-3.878-3.896-3.896H107.995z"/>
</g>
<g>
</g>
<g>
</g>
<g>
</g>
<g>
</g>
<g>
</g>
<g>
</g>
<g>
</g>
<g>
</g>
<g>
</g>
<g>
</g>
<g>
</g>
<g>
</g>
<g>
</g>
<g>
</g>
<g>
</g>
</svg>
