<svg height="512pt" viewBox="0 0 512 512" width="512pt" xmlns="http://www.w3.org/2000/svg"><path d="m512 256c0 141.386719-114.613281 256-256 256s-256-114.613281-256-256 114.613281-256 256-256 256 114.613281 256 256zm0 0" fill="#8f4a4b"/><path d="m459.0625 471.417969-42.542969-4.445313c-7.347656-.765625-14.519531 2.578125-18.652343 8.699219l-23.945313 35.445313c-.867187 1.289062-2.8125 1.136718-3.46875-.273438l-95.710937-205.246094 90.632812-42.261718 95.710938 205.246093c.65625 1.410157-.476563 2.996094-2.023438 2.835938zm-408.148438-2.835938c-.65625 1.410157.476563 2.996094 2.023438 2.835938l42.546875-4.445313c7.34375-.769531 14.515625 2.578125 18.652344 8.695313l23.941406 35.449219c.871094 1.289062 2.8125 1.136718 3.46875-.273438l95.710937-205.25-90.632812-42.261719zm0 0" fill="#fda800"/><path d="m387.613281 490.851562-13.6875 20.265626c-.871093 1.289062-2.816406 1.136718-3.472656-.273438l-95.707031-205.246094 21.75-10.144531zm-336.699219-22.269531c-.65625 1.410157.476563 2.996094 2.023438 2.835938l24.324219-2.539063 91.117187-195.402344-21.753906-10.140624zm0 0" fill="#fc9302"/><path d="m432 191c0 97.203125-78.796875 176-176 176s-176-78.796875-176-176 78.796875-176 176-176 176 78.796875 176 176zm0 0" fill="#fdbf43"/><path d="m432 191c0 85.570312-61.070312 156.863281-142 172.707031-80.929688-15.84375-142-87.136719-142-172.707031s61.070312-156.863281 142-172.707031c80.929688 15.84375 142 87.136719 142 172.707031zm0 0" fill="#fdcb6b"/><path d="m402 191c0 80.632812-65.367188 146-146 146s-146-65.367188-146-146 65.367188-146 146-146 146 65.367188 146 146zm0 0" fill="#ee4424"/><path d="m256 337c-9.894531 0-19.558594-.988281-28.902344-2.867188-46.976562-26.753906-79.097656-80.804687-79.097656-143.132812s32.121094-116.378906 79.097656-143.132812c9.34375-1.878907 19.007813-2.867188 28.902344-2.867188 80.632812 0 146 65.367188 146 146s-65.367188 146-146 146zm0 0" fill="#fc5426"/><path d="m372.535156 40.839844 6.4375 11.773437c.148438.273438.371094.496094.644532.644531l11.773437 6.4375c1.121094.613282 1.121094 2.226563 0 2.839844l-11.773437 6.4375c-.269532.148438-.496094.371094-.644532.644532l-6.4375 11.773437c-.613281 1.121094-2.222656 1.121094-2.839844 0l-6.4375-11.773437c-.148437-.269532-.371093-.496094-.644531-.644532l-11.773437-6.4375c-1.121094-.613281-1.121094-2.222656 0-2.839844l11.773437-6.4375c.273438-.148437.496094-.371093.644531-.644531l6.4375-11.773437c.617188-1.121094 2.226563-1.121094 2.839844 0zm0 0" fill="#fff2b4"/><path d="m267.746094 136.816406v-65.546875c0-2.035156 1.648437-3.683593 3.683594-3.683593 10.980468 0 19.882812 8.902343 19.882812 19.886718v39.769532c0 3.660156 2.96875 6.625 6.628906 6.625s6.625-2.964844 6.625-6.625v-40.695313c0-7.210937 3.714844-13.917969 9.832032-17.738281 1.199218-.75 2.707031-.75 3.90625 0 6.113281 3.820312 9.828124 10.523437 9.828124 17.738281v40.695313c0 3.660156 2.96875 6.625 6.628907 6.625 3.660156 0 6.628906-2.964844 6.628906-6.625v-39.769532c0-10.984375 8.902344-19.886718 19.882813-19.886718 2.035156 0 3.683593 1.648437 3.683593 3.683593v65.546875c0 18.882813-10.777343 35.242188-26.511719 43.289063v109.894531h-44.1875v-109.894531c-15.734374-8.046875-26.511718-24.40625-26.511718-43.289063zm0 0" fill="#e1ebf0"/><path d="m242.804688 113.113281c.960937 3.855469 1.449218 7.8125 1.449218 11.789063v11.691406c0 18.882812-10.777344 35.242188-26.511718 43.289062v102.527344h-44.1875v-102.527344c-15.734376-8.046874-26.515626-24.40625-26.515626-43.289062v-11.691406c0-3.976563.488282-7.933594 1.453126-11.789063l5.058593-20.246093c4.832031-19.316407 22.1875-32.867188 42.097657-32.867188 19.910156 0 37.261718 13.550781 42.09375 32.867188zm65.410156 47.304688c-9.039063-7.765625-15.1875-18.792969-16.617188-31.261719-.183594-.605469-.285156-3.664062-.285156-3.664062-.023438-.640626-.039062-4.878907-.039062-4.878907v-34.355469c-.628907-10.414062-9.273438-18.667968-19.84375-18.667968-2.035157 0-3.683594 1.648437-3.683594 3.679687v65.546875c0 18.886719 10.777344 35.242188 26.511718 43.289063v109.894531h23.527344v-108.984375c0-7.941406-3.550781-15.421875-9.570312-20.597656zm0 0" fill="#b4d2d7"/><path d="m244.253906 124.902344v11.691406c0 4.257812-.550781 8.390625-1.582031 12.328125-8.074219 8.363281-18.664063 13.445313-30.269531 13.445313-25.320313 0-45.84375-24.148438-45.84375-53.945313 0-21.128906 10.328125-39.410156 25.367187-48.261719 1.226563-.105468 2.46875-.160156 3.722657-.160156 19.910156 0 37.265624 13.550781 42.09375 32.867188l5.0625 20.246093c.960937 3.855469 1.449218 7.8125 1.449218 11.789063zm-36.761718 77.558594c-5.707032 0-10.332032 4.625-10.332032 10.332031v69.617187h20.582032v-70.859375c-.613282-5.117187-4.964844-9.089843-10.25-9.089843zm0 0" fill="#e1ebf0"/><path d="m424.5 310h-337c-5.523438 0-10-4.476562-10-10v-60c0-5.523438 4.476562-10 10-10h337c5.523438 0 10 4.476562 10 10v60c0 5.523438-4.476562 10-10 10zm0 0" fill="#ffe899"/><path d="m424.5 310h-307c-5.523438 0-10-4.476562-10-10v-60c0-5.523438 4.476562-10 10-10h307c5.523438 0 10 4.476562 10 10v60c0 5.523438-4.476562 10-10 10zm0 0" fill="#fff2b4"/><path d="m216.8125 263.644531-11.382812 11.09375c-.472657.457031-.6875 1.121094-.574219 1.769531l2.683593 15.667969c.28125 1.632813-1.433593 2.878907-2.898437 2.105469l-14.070313-7.394531c-.585937-.308594-1.28125-.308594-1.863281 0l-14.070312 7.394531c-1.464844.773438-3.179688-.472656-2.902344-2.105469l2.6875-15.667969c.113281-.648437-.101563-1.3125-.574219-1.769531l-11.382812-11.09375c-1.1875-1.160156-.53125-3.175781 1.109375-3.414062l15.730469-2.285157c.648437-.09375 1.214843-.503906 1.503906-1.09375l7.035156-14.253906c.734375-1.484375 2.851562-1.484375 3.585938 0l7.035156 14.253906c.292968.589844.855468 1 1.507812 1.09375l15.730469 2.285157c1.640625.238281 2.296875 2.253906 1.109375 3.414062zm-67.46875-3.414062-15.730469-2.285157c-.652343-.09375-1.214843-.503906-1.507812-1.09375l-7.035157-14.253906c-.734374-1.488281-2.851562-1.488281-3.585937 0l-7.035156 14.253906c-.292969.589844-.855469 1-1.507813 1.09375l-15.726562 2.285157c-1.640625.238281-2.296875 2.253906-1.109375 3.410156l11.382812 11.097656c.472657.457031.6875 1.121094.574219 1.769531l-2.6875 15.667969c-.277344 1.632813 1.4375 2.878907 2.902344 2.105469l14.070312-7.394531c.582032-.308594 1.28125-.308594 1.863282 0l14.066406 7.394531c1.46875.773438 3.183594-.472656 2.902344-2.105469l-2.6875-15.667969c-.109376-.648437.105468-1.3125.578124-1.769531l11.382813-11.097656c1.183594-1.15625.527344-3.171875-1.109375-3.410156zm199.082031 0-15.730469-2.285157c-.652343-.09375-1.214843-.503906-1.503906-1.09375l-7.035156-14.253906c-.734375-1.488281-2.855469-1.488281-3.589844 0l-7.035156 14.253906c-.289062.589844-.851562 1-1.503906 1.09375l-15.730469 2.285157c-1.640625.238281-2.296875 2.253906-1.109375 3.410156l11.382812 11.097656c.472657.457031.6875 1.121094.574219 1.769531l-2.683593 15.667969c-.28125 1.632813 1.433593 2.878907 2.898437 2.105469l14.070313-7.394531c.585937-.308594 1.28125-.308594 1.863281 0l14.070312 7.394531c1.464844.773438 3.179688-.472656 2.902344-2.105469l-2.6875-15.667969c-.113281-.648437.101563-1.3125.574219-1.769531l11.382812-11.097656c1.1875-1.15625.53125-3.171875-1.109375-3.410156zm67.46875 3.414062c1.1875-1.160156.535157-3.175781-1.105469-3.414062l-15.730468-2.285157c-.652344-.09375-1.214844-.503906-1.507813-1.09375l-7.035156-14.253906c-.734375-1.484375-2.851563-1.484375-3.585937 0l-7.035157 14.253906c-.289062.589844-.855469 1-1.503906 1.09375l-15.730469 2.285157c-1.640625.238281-2.296875 2.253906-1.109375 3.414062l11.382813 11.09375c.472656.457031.6875 1.121094.574218 1.769531l-2.6875 15.667969c-.277343 1.632813 1.4375 2.878907 2.902344 2.105469l14.070313-7.394531c.585937-.308594 1.28125-.308594 1.863281 0l14.070312 7.394531c1.464844.773438 3.179688-.472656 2.902344-2.105469l-2.6875-15.667969c-.113281-.648437.101563-1.3125.574219-1.769531zm-133.828125-3.414062-15.730468-2.285157c-.652344-.09375-1.214844-.503906-1.507813-1.09375l-7.035156-14.253906c-.734375-1.488281-2.851563-1.488281-3.585938 0l-7.035156 14.253906c-.289063.589844-.855469 1-1.507813 1.09375l-15.726562 2.285157c-1.640625.238281-2.296875 2.253906-1.109375 3.410156l11.382813 11.097656c.46875.457031.6875 1.121094.574218 1.769531l-2.6875 15.667969c-.28125 1.632813 1.433594 2.878907 2.902344 2.105469l14.070312-7.394531c.582032-.308594 1.277344-.308594 1.859376 0l14.070312 7.394531c1.46875.773438 3.183594-.472656 2.902344-2.105469l-2.6875-15.667969c-.109375-.648437.105468-1.3125.574218-1.769531l11.386719-11.097656c1.183594-1.15625.527344-3.171875-1.109375-3.410156zm0 0" fill="#fdbf43"/></svg>