<svg height="512pt" viewBox="0 -7 512.00001 512" width="512pt" xmlns="http://www.w3.org/2000/svg"><path d="m504.429688 50.964844h-31.246094l27.109375-35.828125h4.136719c4.183593 0 7.570312-3.386719 7.570312-7.566407 0-4.179687-3.386719-7.570312-7.570312-7.570312h-496.859376c-4.183593 0-7.570312 3.390625-7.570312 7.570312 0 4.179688 3.386719 7.566407 7.570312 7.566407h3.328126l23.230468 35.828125h-26.558594c-4.183593 0-7.570312 3.386718-7.570312 7.570312 0 4.179688 3.386719 7.566406 7.570312 7.566406h31.804688v48.441407c0 4.179687 3.386719 7.570312 7.570312 7.570312 4.179688 0 7.566407-3.390625 7.566407-7.570312v-48.441407h396.769531v48.441407c0 4.179687 3.386719 7.570312 7.566406 7.570312 4.183594 0 7.570313-3.390625 7.570313-7.570312v-48.441407h38.011719c4.183593 0 7.570312-3.386718 7.570312-7.566406 0-4.183594-3.386719-7.570312-7.570312-7.570312zm-352.179688-29.644532 19.222656 29.644532h-41.652344zm-36.027344 22.523438-18.609375-28.707031h40.332031zm50.0625-28.707031h40.332032l-21.71875 28.707031zm54.636719 6.183593 19.222656 29.644532h-41.652343zm14.035156-6.183593h40.335938l-21.722657 28.707031zm54.640625 6.183593 19.21875 29.644532h-41.652344zm14.03125-6.183593h40.335938l-21.722656 28.707031zm54.640625 6.183593 19.21875 29.644532h-41.652343zm14.03125-6.183593h40.335938l-21.722657 28.707031zm54.640625 6.183593 19.222656 29.644532h-41.652343zm32.644532 22.523438-18.613282-28.707031h40.335938zm-390.3125-28.707031-21.722657 28.707031-18.609375-28.707031zm14.304687 6.183593 19.222656 29.644532h-41.652343zm0 0" fill="#bebebe"/><path d="m423.300781 216.804688-129.375 276.8125c-.972656 2.082031-3.0625 3.414062-5.363281 3.414062h-252.550781c-5.105469 0-7.816407-6.03125-4.429688-9.851562l312.933594-352.808594" fill="#ffea06"/><path d="m104.578125 135.675781c0 5.953125-2.25 11.910157-6.757813 16.421875-9.035156 9.019532-23.808593 9.019532-32.832031 0l-21.402343-21.417968c-4.523438-4.511719-6.773438-10.464844-6.773438-16.410157 0-5.941406 2.25-11.898437 6.773438-16.40625 1.792968-1.796875 3.824218-3.242187 5.992187-4.320312 8.699219-4.351563 19.597656-2.90625 26.824219 4.320312l21.417968 21.402344c3.105469 3.109375 5.144532 6.902344 6.113282 10.910156.433594 1.808594.644531 3.652344.644531 5.5zm0 0" fill="#f29500"/><path d="m82.492188 216.804688 129.375 276.8125c.972656 2.082031 3.0625 3.410156 5.363281 3.410156h252.546875c5.105468 0 7.820312-6.027344 4.429687-9.847656l-312.929687-352.808594" fill="#fff68e"/><path d="m160.488281 145.070312-69.695312 69.695313c-3.21875 3.222656-8.433594 3.222656-11.65625 0l-10.605469-10.605469c-18.941406-18.941406-19.660156-49.21875-2.148438-69.019531-2.160156 15.160156 2.59375 31.113281 14.257813 42.78125l10.609375 10.605469c3.21875 3.21875 8.433594 3.21875 11.65625 0l56.351562-56.34375 1.230469 1.230468c3.21875 3.222657 3.21875 8.4375 0 11.65625zm0 0" fill="#ffa90b"/><path d="m103.933594 130.175781c-8.699219 4.351563-19.609375 2.90625-26.832032-4.320312l-21.40625-21.414063c-3.121093-3.109375-5.148437-6.890625-6.117187-10.898437 8.699219-4.351563 19.597656-2.90625 26.824219 4.320312l21.417968 21.402344c3.105469 3.109375 5.144532 6.902344 6.113282 10.910156zm0 0" fill="#ffa90b"/><path d="m159.257812 132.183594-56.351562 56.34375c-3.222656 3.21875-8.4375 3.21875-11.65625 0l-10.609375-10.605469c-11.664063-11.667969-16.417969-27.621094-14.257813-42.78125.683594-.777344 1.402344-1.542969 2.148438-2.289063l10.042969-10.042968c19.6875-19.6875 51.621093-19.6875 71.308593 0zm0 0" fill="#ffb52d"/><path d="m401.210938 135.675781c0 5.953125 2.25 11.910157 6.761718 16.421875 9.03125 9.019532 23.804688 9.019532 32.828125 0l21.40625-21.417968c4.519531-4.511719 6.769531-10.464844 6.769531-16.410157 0-5.941406-2.25-11.898437-6.769531-16.40625-1.796875-1.796875-3.824219-3.242187-5.996093-4.320312-8.699219-4.351563-19.597657-2.90625-26.824219 4.320312l-21.414063 21.402344c-3.109375 3.109375-5.148437 6.902344-6.117187 10.910156-.433594 1.808594-.644531 3.652344-.644531 5.5zm0 0" fill="#f29500"/><path d="m345.300781 145.070312 69.695313 69.695313c3.21875 3.222656 8.4375 3.222656 11.65625 0l10.605468-10.605469c18.945313-18.941406 19.660157-49.21875 2.152344-69.019531 2.15625 15.160156-2.59375 31.113281-14.261718 42.78125l-10.605469 10.605469c-3.21875 3.21875-8.4375 3.21875-11.65625 0l-56.355469-56.34375-1.230469 1.230468c-3.21875 3.222657-3.21875 8.4375 0 11.65625zm0 0" fill="#ffa90b"/><path d="m401.855469 130.175781c8.699219 4.351563 19.609375 2.90625 26.835937-4.320312l21.40625-21.414063c3.117188-3.109375 5.144532-6.890625 6.113282-10.898437-8.699219-4.351563-19.597657-2.90625-26.824219 4.320312l-21.414063 21.402344c-3.109375 3.109375-5.148437 6.902344-6.117187 10.910156zm0 0" fill="#ffa90b"/><path d="m346.53125 132.183594 56.355469 56.34375c3.21875 3.21875 8.4375 3.21875 11.65625 0l10.605469-10.605469c11.667968-11.667969 16.417968-27.621094 14.261718-42.78125-.6875-.777344-1.40625-1.542969-2.152344-2.289063l-10.039062-10.042968c-19.691406-19.6875-51.621094-19.6875-71.3125 0zm0 0" fill="#ffb52d"/><path d="m358.109375 356.285156-64.183594 137.332032c-.96875 2.082031-3.066406 3.414062-5.359375 3.414062h-71.339844c-2.300781 0-4.390624-1.332031-5.359374-3.414062l-64.183594-137.332032 105.21875-118.621094zm0 0" fill="#fff36c"/><path d="m358.109375 356.285156-64.183594 137.332032c-.96875 2.082031-3.066406 3.414062-5.359375 3.414062h-71.339844c-2.300781 0-4.390624-1.332031-5.359374-3.414062l-64.183594-137.332032 105.21875-118.621094zm0 0" fill="#fff04a"/></svg>