<svg height="356pt" viewBox="0 -3 356 356" width="356pt" xmlns="http://www.w3.org/2000/svg"><path d="m136.46875 326.332031h83.066406v23.734375h-83.066406zm0 0" fill="#f29200"/><path d="m5.933594 189.867188h344.132812c0 75.367187-61.097656 136.464843-136.46875 136.464843h-71.199218c-75.367188 0-136.464844-61.097656-136.464844-136.464843zm0 0" fill="#f8cf26"/><path d="m77.136719 118.664062 59.332031-59.332031 17.800781 17.800781-59.332031 59.332032zm0 0" fill="#f8cf26"/><path d="m71.195312 89 35.597657-35.597656 17.804687 17.800781-35.601562 35.597656zm0 0" fill="#f29200"/><path d="m89 0 35.601562 35.601562-71.203124 71.199219-53.398438-53.402343" fill="#ccc"/><path d="m201.730469 77.136719 17.800781-17.800781 59.332031 59.332031-17.800781 17.800781zm0 0" fill="#f8cf26"/><path d="m231.394531 71.195312 17.800781-17.800781 35.597657 35.597657-17.800781 17.800781zm0 0" fill="#f29200"/><path d="m267 0-35.601562 35.601562 71.203124 71.199219 53.398438-53.402343" fill="#f15a24"/><path d="m130.53125 124.601562h11.867188v11.867188h-11.867188zm0 0" fill="#736357"/><path d="m142.398438 148.332031h11.867187v11.867188h-11.867187zm0 0" fill="#736357"/><path d="m112.734375 160.199219h11.867187v11.867187h-11.867187zm0 0" fill="#736357"/><g fill="#f15a24"><path d="m201.734375 124.601562h11.867187v11.867188h-11.867187zm0 0"/><path d="m189.867188 148.332031h11.867187v11.867188h-11.867187zm0 0"/><path d="m219.53125 160.199219h11.867188v11.867187h-11.867188zm0 0"/></g></svg>