<?xml version="1.0" encoding="iso-8859-1"?>
<!-- Generator: Adobe Illustrator 19.0.0, SVG Export Plug-In . SVG Version: 6.00 Build 0)  -->
<svg version="1.1" id="Layer_1" xmlns="http://www.w3.org/2000/svg" xmlns:xlink="http://www.w3.org/1999/xlink" x="0px" y="0px"
	 viewBox="0 0 505.07 505.07" style="enable-background:new 0 0 505.07 505.07;" xml:space="preserve">
<g>
	<g>
		<path d="M485.964,273.968c-1.721-3.5-5.624-5.338-9.434-4.474c-3.802,0.881-6.497,4.272-6.497,8.175
			c0,7.428-3.097,17.601-8.83,29.201c-1.813-4.658-3.836-9.115-6.186-13.236c-15.125-26.54-36.268-48.858-94.846-78.093
			c-54.809-27.354-80.543-117.307-82.986-126.279c-0.034-1.981-0.076-3.911-0.101-5.934l-0.101-49.068
			c0-3.71-2.426-6.975-5.984-8.041l-83.934-25.18c-2.535-0.772-5.288-0.294-7.42,1.301c-2.124,1.586-3.383,4.079-3.383,6.74
			l0.05,58.939c0.025,3.122,0.05,5.12-0.05,7.084c0,27.321-1.267,50.696-3.383,71.025c-13.404,31.853-34.581,55.22-63.01,69.414
			c-58.578,29.234-79.721,51.553-94.846,78.093C2.61,315.423,0,340.721,0,358.112c0,83.657,76.85,103.709,135.932,111.213
			c28.093,22.881,59.35,35.068,90.691,35.068c20.497,0,40.624-4.893,59.929-14.437c18.65,8.041,41.371,14.395,66.812,14.395
			c26.792,0,56.555-7.025,87.56-26.532C550.509,408.918,486.618,275.311,485.964,273.968z M140.976,251.843
			c-0.143,0.185-0.285,0.378-0.428,0.571c-1.326,1.746-2.694,3.383-4.096,4.927c-0.311,0.344-0.629,0.739-0.94,1.074h-0.008
			c-1.385,1.477-2.803,2.862-4.247,4.113c-3.618,3.156-7.051,6.48-10.299,9.955c-1.595,1.695-2.996,3.525-4.49,5.296
			c-1.544,1.83-3.181,3.592-4.625,5.498c-1.721,2.258-3.231,4.633-4.809,6.975c-1.024,1.544-2.157,3.022-3.122,4.591
			c-1.502,2.459-2.795,5.011-4.138,7.546c-0.848,1.586-1.779,3.131-2.56,4.742c-1.175,2.451-2.149,4.977-3.173,7.487
			c-0.747,1.813-1.57,3.584-2.233,5.422c-0.839,2.333-1.486,4.726-2.191,7.109c-0.63,2.098-1.326,4.172-1.847,6.295
			c-0.546,2.207-0.898,4.449-1.326,6.673c-0.453,2.359-0.957,4.709-1.284,7.084c-0.285,2.149-0.403,4.323-0.588,6.48
			c-0.168,2.048-0.478,4.079-0.554,6.136c-0.017,0.529,0.025,1.041,0.008,1.57c-0.008,0.353-0.067,0.697-0.076,1.049
			c-0.008,0.797,0.084,1.578,0.084,2.367c0.008,3.106,0.117,6.194,0.336,9.266c0.101,1.293,0.193,2.577,0.327,3.861
			c0.336,3.315,0.814,6.606,1.41,9.879c0.151,0.789,0.235,1.595,0.395,2.392c0.797,3.92,1.796,7.797,2.963,11.625
			c0.361,1.192,0.789,2.35,1.183,3.534c0.906,2.694,1.888,5.355,2.971,7.999c0.562,1.36,1.142,2.711,1.746,4.062
			c1.2,2.636,2.501,5.229,3.878,7.789c0.571,1.066,1.091,2.149,1.687,3.19c1.855,3.231,3.827,6.413,5.976,9.51
			c0.126,0.193,0.285,0.361,0.42,0.554c1.595,2.266,3.374,4.432,5.12,6.614c1.083,1.36,2.04,2.787,3.173,4.096
			c-68.113-12.926-98.833-41.564-98.833-91.06c0-15.36,2.224-37.577,12.817-56.169c13.572-23.804,32.978-44.049,87.762-71.386
			c19.003-9.485,35.127-22.52,48.229-38.979C159.685,217.514,151.376,237.893,140.976,251.843z M352.676,230.557
			c54.776,27.337,74.19,47.582,87.753,71.386c4.071,7.143,7.21,15.402,9.367,24.559c-0.705,1.058-1.385,2.107-2.115,3.173
			c-0.68,0.982-1.402,1.981-2.115,2.98c-1.15,1.62-2.291,3.24-3.517,4.868c-2.317,3.064-4.767,6.169-7.386,9.317
			c-0.227,0.277-0.462,0.554-0.688,0.823c-17.802,21.219-42.303,43.839-71.739,61.289c3.357-9.527,5.464-19.406,6.429-29.528
			c0.05-0.436,0.101-0.881,0.134-1.318c0.059-0.688,0.168-1.368,0.218-2.065c0.076-1.141,0-2.3,0.05-3.458
			c0.118-2.661,0.176-5.313,0.126-7.974c-0.008-0.638,0.059-1.276,0.034-1.905c-0.034-1.007-0.168-2.014-0.227-3.013
			c-0.109-1.847-0.235-3.685-0.428-5.514c-0.151-1.452-0.361-2.887-0.554-4.331c-0.294-2.132-0.596-4.255-0.999-6.371
			c-0.193-0.99-0.436-1.972-0.646-2.954c-2.149-10.013-5.473-19.825-10.013-29.251c-0.302-0.638-0.655-1.251-0.965-1.88
			c-1.578-3.148-3.273-6.245-5.12-9.292c-0.638-1.058-1.309-2.107-1.981-3.148c-1.662-2.594-3.424-5.137-5.279-7.638
			c-0.831-1.116-1.645-2.233-2.51-3.324c-1.93-2.451-3.987-4.835-6.11-7.185c-0.671-0.739-1.251-1.536-1.93-2.266
			c-0.218-0.235-0.47-0.436-0.697-0.663c-3.089-3.24-6.32-6.396-9.778-9.409c-1.385-1.209-2.745-2.552-4.079-3.979
			c-0.193-0.21-0.386-0.403-0.579-0.621l0.008-0.008c-18.566-20.371-31.249-60.701-36.906-115.972
			C295.139,177.082,318.607,213.56,352.676,230.557z M235.016,155.964c0,4.633-3.76,8.393-8.393,8.393s-8.393-3.76-8.393-8.393
			v-50.361c0-4.642,3.76-8.393,8.393-8.393s8.393,3.752,8.393,8.393V155.964z M431.994,463.609
			c-74.819,47.045-141.178,13.967-171.94-7.781c0.243,0,0.495,0.008,0.747,0.008c1.024,0,2.014-0.084,3.03-0.101
			c2.996-0.034,6.001-0.126,8.998-0.311c0.663-0.042,1.309-0.109,1.964-0.159c3.408-0.243,6.807-0.588,10.215-1.032
			c0.646-0.084,1.276-0.176,1.914-0.269c3.139-0.436,6.278-0.957,9.426-1.561c1.041-0.193,2.073-0.411,3.106-0.621
			c2.443-0.512,4.877-1.066,7.319-1.67c1.796-0.445,3.576-0.906,5.347-1.393c1.46-0.403,2.921-0.823,4.381-1.267
			c2.761-0.823,5.489-1.687,8.175-2.602c0.428-0.151,0.856-0.294,1.276-0.445c29.092-10.114,53.609-25.331,71.873-39.181
			c0.168-0.134,0.344-0.26,0.512-0.386c5.212-3.97,9.971-7.831,14.101-11.398c0.185-0.159,0.344-0.319,0.529-0.478
			c1.595-1.377,3.114-2.845,4.684-4.255c2.661-2.409,5.305-4.826,7.865-7.302c2.401-2.325,4.726-4.684,7.034-7.076
			c1.544-1.595,3.038-3.198,4.532-4.818c2.501-2.703,4.977-5.389,7.353-8.158c0.974-1.15,1.855-2.3,2.812-3.45
			c3.794-4.583,7.42-9.233,10.844-13.975c1.964-2.711,3.869-5.414,5.666-8.116c0.671-1.007,1.444-1.981,2.098-2.996
			c0.126-0.201,0.143-0.445,0.26-0.655c5.716-8.981,10.534-17.802,13.984-26.104c3.576,11.902,7.067,27.245,8.142,44.049
			C491.436,399.945,472.509,438.135,431.994,463.609z"/>
	</g>
</g>
<g>
</g>
<g>
</g>
<g>
</g>
<g>
</g>
<g>
</g>
<g>
</g>
<g>
</g>
<g>
</g>
<g>
</g>
<g>
</g>
<g>
</g>
<g>
</g>
<g>
</g>
<g>
</g>
<g>
</g>
</svg>
