<svg height="472pt" viewBox="-56 0 472 472" width="472pt" xmlns="http://www.w3.org/2000/svg"><path d="m164.082031 277.199219 113.121094-113.121094 33.917969 33.917969-113.121094 113.121094zm0 0" fill="#0f71c7"/><path d="m277.199219 164.078125-113.121094 113.121094-135.519531-135.519531c34.160156.398437 35.679687 4.640624 72.722656 4.640624 38.71875 0 38.71875-4.640624 77.359375-4.640624s38.71875 4.640624 77.359375 4.640624l1.761719-1.679687zm0 0" fill="#edede8"/><path d="m257.761719 144.640625-1.761719 1.679687c-38.640625 0-38.640625-4.640624-77.359375-4.640624s-38.640625 4.640624-77.359375 4.640624c-37.042969 0-38.5625-4.242187-72.722656-4.640624l-28.558594-28.558594 113.121094-113.121094zm0 0" fill="#0f71c7"/><path d="m322.480469 209.28125-11.359375-11.28125-113.121094 113.121094 11.28125 11.359375c31.34375 30.761719 81.617188 30.527343 112.671875-.527344s31.289063-81.328125.527344-112.671875zm-33.976563 45.304688 11.3125 11.308593-11.28125 11.28125-11.3125-11.3125zm-45.222656 67.8125-11.351562-11.199219 11.269531-11.359375 11.351562 11.265625zm22.613281-22.613282-11.308593-11.3125 11.277343-11.28125 11.3125 11.3125zm22.65625 22.621094-11.351562-11.207031 11.289062-11.359375 11.34375 11.28125zm22.527344-22.605469-11.269531-11.320312 11.359375-11.28125 11.273437 11.359375zm0-45.273437-11.269531-11.328125 11.359375-11.277344 11.273437 11.359375zm0 0" fill="#c4c3c3"/><g fill="#deded9"><path d="m288 392h16v16h-16zm0 0"/><path d="m304 456h16v16h-16zm0 0"/><path d="m344 384h16v16h-16zm0 0"/><path d="m336 440h16v16h-16zm0 0"/><path d="m320 400h16v16h-16zm0 0"/><path d="m320 352h16v16h-16zm0 0"/><path d="m256 448h16v16h-16zm0 0"/></g></svg>