<svg height="512pt" viewBox="-98 0 512 512.001" width="512pt" xmlns="http://www.w3.org/2000/svg"><path d="m190.355469 21.523438-32.480469-10.828126-20.015625 155.203126h52.496094zm0 0" fill="#b4d2d7"/><path d="m125.785156 0v165.898438h32.089844v-155.203126zm0 0" fill="#e1ebf0"/><path d="m297.960938 325.773438c-.757813-1.410157-1.503907-2.824219-2.246094-4.242188-25.3125-33.863281-93.960938-61.246094-156.378906-61.863281-.5-.007813 18.539062 252.332031 18.539062 252.332031h107.242188c31.304687-27.960938 51.023437-68.632812 51.023437-113.910156 0-26.164063-6.582031-50.789063-18.179687-72.316406zm0 0" fill="#efe2dd"/><path d="m24.929688 312.554688c-2.152344 4.449218-4.398438 8.859374-6.75 13.21875-11.597657 21.527343-18.179688 46.152343-18.179688 72.316406 0 45.28125 19.714844 85.949218 51.023438 113.910156h106.851562v-252.335938c-61.515625-.34375-97.984375 16.046876-132.945312 52.890626zm0 0" fill="#fff5f5"/><path d="m295.71875 321.53125c-25.027344-48.058594-38.257812-101.402344-38.257812-155.632812h-119.601563l20.015625 150.457031c15.324219-5.550781 30.609375-11.117188 61.253906-11.117188 40.515625 0 54.1875 9.726563 76.589844 16.292969zm0 0" fill="#5ecef4"/><path d="m58.679688 165.898438c0 50.875-11.644532 100.972656-33.75 146.65625 19.808593 6.453124 34.285156 14.84375 71.90625 14.84375 30.5 0 45.789062-5.515626 61.039062-11.042969v-150.457031zm0 0" fill="#bdfdff"/><path d="m189.964844 267.667969v-101.265625h-52.105469l20.015625 101.265625zm0 0" fill="#2682ff"/><path d="m125.785156 166.402344h32.089844v101.265625h-32.089844zm0 0" fill="#5ecef4"/><path d="m305.886719 150.898438h-148.011719l-10.007812 15.503906 10.007812 14.496094h148.011719zm0 0" fill="#87a0af"/><path d="m10.253906 150.898438h147.621094v30h-147.621094zm0 0" fill="#b4d2d7"/></svg>