<svg height="464pt" viewBox="0 -16 464 464" width="464pt" xmlns="http://www.w3.org/2000/svg"><path d="m24 384h416v48h-416zm0 0" fill="#754c29"/><path d="m464 352v32h-464v-32zm0 0" fill="#8b5e3c"/><g fill="#ffb655"><path d="m456 200v16c0 4.417969-3.582031 8-8 8h-80c-4.417969 0-8-3.582031-8-8v-16c0-4.417969 3.582031-8 8-8h80c4.417969 0 8 3.582031 8 8zm0 0"/><path d="m448 256c4.417969 0 8 3.582031 8 8v16c0 4.417969-3.582031 8-8 8h-80c-4.417969 0-8-3.582031-8-8v-16c0-4.417969 3.582031-8 8-8zm0 0"/><path d="m360 320h80c4.417969 0 8 3.582031 8 8v16c0 4.417969-3.582031 8-8 8h-80c-4.417969 0-8-3.582031-8-8v-16c0-4.417969 3.582031-8 8-8zm0 0"/></g><path d="m448 296v16c0 4.417969-3.582031 8-8 8h-80c-4.417969 0-8-3.582031-8-8v-16c0-4.417969 3.582031-8 8-8h80c4.417969 0 8 3.582031 8 8zm0 0" fill="#ff9811"/><path d="m448 232v16c0 4.417969-3.582031 8-8 8h-80c-4.417969 0-8-3.582031-8-8v-16c0-4.417969 3.582031-8 8-8h80c4.417969 0 8 3.582031 8 8zm0 0" fill="#ff9811"/><path d="m456 128c0 26.507812-21.492188 48-48 48s-48-21.492188-48-48 21.492188-48 48-48 48 21.492188 48 48zm0 0" fill="#ff9811"/><path d="m264 280-8-56c35.347656 0 64 28.652344 64 64v64h-104v-80zm0 0" fill="#5aaae7"/><path d="m256 224 8 56-48-8zm0 0" fill="#1e81ce"/><path d="m176 224 40 48-48 8zm0 0" fill="#1e81ce"/><path d="m168 280 48-8v80h-104v-64c0-35.347656 28.652344-64 64-64zm0 0" fill="#3d9ae2"/><path d="m256 224-40 48-40-48zm0 0" fill="#ffdaaa"/><path d="m264 128v32c0 26.507812-21.492188 48-48 48s-48-21.492188-48-48v-32c-.015625-.453125.011719-.910156.078125-1.359375 16.082031-2.878906 51.683594-10.402344 63.921875-22.640625 7.71875 11.078125 18.972656 19.203125 31.921875 23.039062.0625.316407.089844.640626.078125.960938zm0 0" fill="#ffdaaa"/><path d="m272 128c-2.722656.011719-5.4375-.3125-8.078125-.960938-12.949219-3.835937-24.203125-11.960937-31.921875-23.039062-12.238281 12.238281-47.839844 19.761719-63.921875 22.640625-4.957031.878906-8.078125 1.359375-8.078125 1.359375 0-30.929688 25.070312-56 56-56s56 25.070312 56 56zm0 0" fill="#898890"/><path d="m128 8v120l-32-32h-88c-4.417969 0-8-3.582031-8-8v-80c0-4.417969 3.582031-8 8-8h112c4.417969 0 8 3.582031 8 8zm0 0" fill="#00ccb3"/><path d="m24 384h416v16h-416zm0 0" fill="#603913"/><path d="m272 288h16v64h-16zm0 0" fill="#3d9ae2"/><path d="m144 288h16v64h-16zm0 0" fill="#1e81ce"/><path d="m24 24h80v16h-80zm0 0" fill="#009986"/><path d="m24 56h80v16h-80zm0 0" fill="#009986"/></svg>