<?xml version="1.0" encoding="iso-8859-1"?>
<!-- Generator: Adobe Illustrator 16.0.0, SVG Export Plug-In . SVG Version: 6.00 Build 0)  -->
<!DOCTYPE svg PUBLIC "-//W3C//DTD SVG 1.1//EN" "http://www.w3.org/Graphics/SVG/1.1/DTD/svg11.dtd">
<svg version="1.1" id="Capa_1" xmlns="http://www.w3.org/2000/svg" xmlns:xlink="http://www.w3.org/1999/xlink" x="0px" y="0px"
	 width="981.9px" height="981.9px" viewBox="0 0 981.9 981.9" style="enable-background:new 0 0 981.9 981.9;" xml:space="preserve"
	>
<g>
	<path d="M721.501,858.413c0,29.9,24.2,54.101,54.1,54.101h2.601c29.899,0,54.1-24.2,54.1-54.101v-104.5h-110.8V858.413z"/>
	<path d="M781.701,68.613h-9.601c-110.6,0-200.3,89.7-200.3,200.3v395.101c0,27.6,22.4,50,50,50h99.7h110.7H931.9
		c27.601,0,50-22.4,50-50V268.913C981.9,158.313,892.301,68.613,781.701,68.613z"/>
	<polygon points="358.4,540.313 152,540.313 255.2,643.413 	"/>
	<polygon points="332.9,721.113 379.5,575.813 283.5,671.712 	"/>
	<polygon points="131,575.813 177.5,721.113 226.9,671.712 	"/>
	<path d="M191.2,764.013L236,903.913c5.6,12.5,32.8,12.5,38.4,0l44.8-139.899l-64-64L191.2,764.013z"/>
	<path d="M401.4,236.913c-9.199-1.6-15.5-10.1-14.399-19.4c0.7-6.1,1.1-12.4,1-18.8c-1.4-72.1-60.8-130.1-132.7-130.1
		c-0.7,0-1.3,0-2,0c-72.4,1.1-130.7,60.1-130.7,132.7c0,5.5,0.3,11,1,16.3c1.1,9.2-5.3,17.6-14.4,19.2
		c-62,11.2-109,65.2-109.2,130.3c-0.2,63.5,45.8,117.1,105.8,130.1c9.2,2,18.6,3,28.3,3h242.2c9.7,0,19.2-1.1,28.3-3
		c60-13,106.101-66.6,105.901-130.1C510.301,302.013,463.3,248.013,401.4,236.913z"/>
</g>
<g>
</g>
<g>
</g>
<g>
</g>
<g>
</g>
<g>
</g>
<g>
</g>
<g>
</g>
<g>
</g>
<g>
</g>
<g>
</g>
<g>
</g>
<g>
</g>
<g>
</g>
<g>
</g>
<g>
</g>
</svg>
